<?xml version="1.0" encoding="UTF-8"?>
<svg version="1.1" xmlns="http://www.w3.org/2000/svg" width="1555" height="1557">
<path d="M0 0 C5.00342035 0.01385548 10.00680764 0.00423124 15.01023535 -0.00230996 C23.7640806 -0.0105709 32.51781666 -0.0040883 41.27164916 0.01224287 C54.28810144 0.03645864 67.30448539 0.03757908 80.32095608 0.03407492 C102.22043023 0.02882817 124.11985865 0.04212201 146.01931838 0.06614454 C167.69511724 0.08986473 189.37089616 0.10525097 211.04670791 0.1095558 C211.72081358 0.10969345 212.39491926 0.10983109 213.08945238 0.10997291 C219.24671037 0.11122578 225.40396838 0.11237653 231.56122641 0.11340481 C246.86490088 0.11596182 262.16857488 0.11979876 277.47224883 0.1245056 C278.51738991 0.1248255 278.51738991 0.1248255 279.58364495 0.12515187 C313.44589505 0.13562842 347.30813201 0.16085474 381.17037277 0.18730696 C392.91577468 0.19647391 404.66117665 0.20557551 416.40657882 0.21440657 C417.1350673 0.21495437 417.86355578 0.21550216 418.61411966 0.21606656 C452.50376979 0.24146071 486.39342219 0.25635099 520.28307934 0.26854575 C522.48424732 0.269338 524.68541529 0.27013477 526.88658327 0.27093247 C541.47430234 0.27621177 556.06202148 0.28131033 570.64974066 0.2862879 C599.67365577 0.29619293 628.69757044 0.30715962 657.72148488 0.31885609 C659.10356107 0.31941305 660.48563726 0.31996927 661.86771345 0.32052474 C749.50324153 0.3557552 837.13875484 0.41535467 937.52388839 0.48906477 C937.85388839 2.46906477 938.18388839 4.44906477 938.52388839 6.48906477 C944.95888839 6.98406477 944.95888839 6.98406477 951.52388839 7.48906477 C951.52388839 8.14906477 951.52388839 8.80906477 951.52388839 9.48906477 C954.16388839 9.48906477 956.80388839 9.48906477 959.52388839 9.48906477 C959.52388839 10.14906477 959.52388839 10.80906477 959.52388839 11.48906477 C963.48388839 11.48906477 967.44388839 11.48906477 971.52388839 11.48906477 C971.52388839 12.14906477 971.52388839 12.80906477 971.52388839 13.48906477 C973.50388839 13.48906477 975.48388839 13.48906477 977.52388839 13.48906477 C977.52388839 14.14906477 977.52388839 14.80906477 977.52388839 15.48906477 C980.16388839 15.48906477 982.80388839 15.48906477 985.52388839 15.48906477 C985.52388839 16.14906477 985.52388839 16.80906477 985.52388839 17.48906477 C986.84388839 17.48906477 988.16388839 17.48906477 989.52388839 17.48906477 C989.52388839 18.14906477 989.52388839 18.80906477 989.52388839 19.48906477 C991.50388839 19.48906477 993.48388839 19.48906477 995.52388839 19.48906477 C995.52388839 20.14906477 995.52388839 20.80906477 995.52388839 21.48906477 C996.84388839 21.48906477 998.16388839 21.48906477 999.52388839 21.48906477 C999.52388839 22.14906477 999.52388839 22.80906477 999.52388839 23.48906477 C1001.50388839 23.48906477 1003.48388839 23.48906477 1005.52388839 23.48906477 C1005.52388839 24.14906477 1005.52388839 24.80906477 1005.52388839 25.48906477 C1007.50388839 25.48906477 1009.48388839 25.48906477 1011.52388839 25.48906477 C1011.52388839 26.14906477 1011.52388839 26.80906477 1011.52388839 27.48906477 C1012.84388839 27.48906477 1014.16388839 27.48906477 1015.52388839 27.48906477 C1015.52388839 28.14906477 1015.52388839 28.80906477 1015.52388839 29.48906477 C1017.50388839 29.48906477 1019.48388839 29.48906477 1021.52388839 29.48906477 C1021.52388839 30.14906477 1021.52388839 30.80906477 1021.52388839 31.48906477 C1022.84388839 31.48906477 1024.16388839 31.48906477 1025.52388839 31.48906477 C1025.52388839 32.14906477 1025.52388839 32.80906477 1025.52388839 33.48906477 C1026.84388839 33.48906477 1028.16388839 33.48906477 1029.52388839 33.48906477 C1029.52388839 34.14906477 1029.52388839 34.80906477 1029.52388839 35.48906477 C1030.84388839 35.48906477 1032.16388839 35.48906477 1033.52388839 35.48906477 C1033.52388839 36.14906477 1033.52388839 36.80906477 1033.52388839 37.48906477 C1034.84388839 37.48906477 1036.16388839 37.48906477 1037.52388839 37.48906477 C1037.52388839 38.14906477 1037.52388839 38.80906477 1037.52388839 39.48906477 C1038.84388839 39.48906477 1040.16388839 39.48906477 1041.52388839 39.48906477 C1041.52388839 40.14906477 1041.52388839 40.80906477 1041.52388839 41.48906477 C1042.84388839 41.48906477 1044.16388839 41.48906477 1045.52388839 41.48906477 C1045.52388839 42.14906477 1045.52388839 42.80906477 1045.52388839 43.48906477 C1046.18388839 43.48906477 1046.84388839 43.48906477 1047.52388839 43.48906477 C1047.52388839 44.14906477 1047.52388839 44.80906477 1047.52388839 45.48906477 C1048.84388839 45.48906477 1050.16388839 45.48906477 1051.52388839 45.48906477 C1051.52388839 46.14906477 1051.52388839 46.80906477 1051.52388839 47.48906477 C1052.84388839 47.48906477 1054.16388839 47.48906477 1055.52388839 47.48906477 C1055.52388839 48.14906477 1055.52388839 48.80906477 1055.52388839 49.48906477 C1056.18388839 49.48906477 1056.84388839 49.48906477 1057.52388839 49.48906477 C1057.52388839 50.14906477 1057.52388839 50.80906477 1057.52388839 51.48906477 C1058.84388839 51.48906477 1060.16388839 51.48906477 1061.52388839 51.48906477 C1061.52388839 52.14906477 1061.52388839 52.80906477 1061.52388839 53.48906477 C1062.84388839 53.48906477 1064.16388839 53.48906477 1065.52388839 53.48906477 C1065.52388839 54.14906477 1065.52388839 54.80906477 1065.52388839 55.48906477 C1066.18388839 55.48906477 1066.84388839 55.48906477 1067.52388839 55.48906477 C1067.52388839 56.14906477 1067.52388839 56.80906477 1067.52388839 57.48906477 C1068.84388839 57.48906477 1070.16388839 57.48906477 1071.52388839 57.48906477 C1071.52388839 58.14906477 1071.52388839 58.80906477 1071.52388839 59.48906477 C1072.18388839 59.48906477 1072.84388839 59.48906477 1073.52388839 59.48906477 C1073.52388839 60.14906477 1073.52388839 60.80906477 1073.52388839 61.48906477 C1074.18388839 61.48906477 1074.84388839 61.48906477 1075.52388839 61.48906477 C1075.52388839 62.14906477 1075.52388839 62.80906477 1075.52388839 63.48906477 C1076.84388839 63.48906477 1078.16388839 63.48906477 1079.52388839 63.48906477 C1079.52388839 64.14906477 1079.52388839 64.80906477 1079.52388839 65.48906477 C1080.18388839 65.48906477 1080.84388839 65.48906477 1081.52388839 65.48906477 C1081.52388839 66.14906477 1081.52388839 66.80906477 1081.52388839 67.48906477 C1082.84388839 67.48906477 1084.16388839 67.48906477 1085.52388839 67.48906477 C1085.52388839 68.14906477 1085.52388839 68.80906477 1085.52388839 69.48906477 C1086.18388839 69.48906477 1086.84388839 69.48906477 1087.52388839 69.48906477 C1087.52388839 70.14906477 1087.52388839 70.80906477 1087.52388839 71.48906477 C1088.18388839 71.48906477 1088.84388839 71.48906477 1089.52388839 71.48906477 C1089.52388839 72.14906477 1089.52388839 72.80906477 1089.52388839 73.48906477 C1090.18388839 73.48906477 1090.84388839 73.48906477 1091.52388839 73.48906477 C1091.52388839 74.14906477 1091.52388839 74.80906477 1091.52388839 75.48906477 C1092.84388839 75.48906477 1094.16388839 75.48906477 1095.52388839 75.48906477 C1095.52388839 76.14906477 1095.52388839 76.80906477 1095.52388839 77.48906477 C1096.18388839 77.48906477 1096.84388839 77.48906477 1097.52388839 77.48906477 C1097.52388839 78.14906477 1097.52388839 78.80906477 1097.52388839 79.48906477 C1098.18388839 79.48906477 1098.84388839 79.48906477 1099.52388839 79.48906477 C1099.52388839 80.14906477 1099.52388839 80.80906477 1099.52388839 81.48906477 C1100.18388839 81.48906477 1100.84388839 81.48906477 1101.52388839 81.48906477 C1101.52388839 82.14906477 1101.52388839 82.80906477 1101.52388839 83.48906477 C1102.18388839 83.48906477 1102.84388839 83.48906477 1103.52388839 83.48906477 C1103.52388839 84.14906477 1103.52388839 84.80906477 1103.52388839 85.48906477 C1104.18388839 85.48906477 1104.84388839 85.48906477 1105.52388839 85.48906477 C1105.52388839 86.14906477 1105.52388839 86.80906477 1105.52388839 87.48906477 C1106.18388839 87.48906477 1106.84388839 87.48906477 1107.52388839 87.48906477 C1107.52388839 88.14906477 1107.52388839 88.80906477 1107.52388839 89.48906477 C1108.18388839 89.48906477 1108.84388839 89.48906477 1109.52388839 89.48906477 C1109.52388839 90.14906477 1109.52388839 90.80906477 1109.52388839 91.48906477 C1110.18388839 91.48906477 1110.84388839 91.48906477 1111.52388839 91.48906477 C1111.52388839 92.14906477 1111.52388839 92.80906477 1111.52388839 93.48906477 C1112.18388839 93.48906477 1112.84388839 93.48906477 1113.52388839 93.48906477 C1113.52388839 94.14906477 1113.52388839 94.80906477 1113.52388839 95.48906477 C1114.18388839 95.48906477 1114.84388839 95.48906477 1115.52388839 95.48906477 C1115.52388839 96.14906477 1115.52388839 96.80906477 1115.52388839 97.48906477 C1116.18388839 97.48906477 1116.84388839 97.48906477 1117.52388839 97.48906477 C1117.52388839 98.14906477 1117.52388839 98.80906477 1117.52388839 99.48906477 C1118.18388839 99.48906477 1118.84388839 99.48906477 1119.52388839 99.48906477 C1119.52388839 100.14906477 1119.52388839 100.80906477 1119.52388839 101.48906477 C1120.18388839 101.48906477 1120.84388839 101.48906477 1121.52388839 101.48906477 C1121.52388839 102.14906477 1121.52388839 102.80906477 1121.52388839 103.48906477 C1122.18388839 103.48906477 1122.84388839 103.48906477 1123.52388839 103.48906477 C1123.52388839 104.14906477 1123.52388839 104.80906477 1123.52388839 105.48906477 C1124.18388839 105.48906477 1124.84388839 105.48906477 1125.52388839 105.48906477 C1125.52388839 106.14906477 1125.52388839 106.80906477 1125.52388839 107.48906477 C1126.18388839 107.48906477 1126.84388839 107.48906477 1127.52388839 107.48906477 C1127.52388839 108.14906477 1127.52388839 108.80906477 1127.52388839 109.48906477 C1128.18388839 109.48906477 1128.84388839 109.48906477 1129.52388839 109.48906477 C1129.52388839 110.14906477 1129.52388839 110.80906477 1129.52388839 111.48906477 C1130.18388839 111.48906477 1130.84388839 111.48906477 1131.52388839 111.48906477 C1131.52388839 112.14906477 1131.52388839 112.80906477 1131.52388839 113.48906477 C1132.18388839 113.48906477 1132.84388839 113.48906477 1133.52388839 113.48906477 C1133.52388839 114.14906477 1133.52388839 114.80906477 1133.52388839 115.48906477 C1134.18388839 115.48906477 1134.84388839 115.48906477 1135.52388839 115.48906477 C1135.52388839 116.14906477 1135.52388839 116.80906477 1135.52388839 117.48906477 C1136.18388839 117.48906477 1136.84388839 117.48906477 1137.52388839 117.48906477 C1137.52388839 118.14906477 1137.52388839 118.80906477 1137.52388839 119.48906477 C1138.18388839 119.48906477 1138.84388839 119.48906477 1139.52388839 119.48906477 C1139.52388839 120.14906477 1139.52388839 120.80906477 1139.52388839 121.48906477 C1140.18388839 121.48906477 1140.84388839 121.48906477 1141.52388839 121.48906477 C1141.52388839 122.80906477 1141.52388839 124.12906477 1141.52388839 125.48906477 C1142.18388839 125.48906477 1142.84388839 125.48906477 1143.52388839 125.48906477 C1143.52388839 126.14906477 1143.52388839 126.80906477 1143.52388839 127.48906477 C1144.18388839 127.48906477 1144.84388839 127.48906477 1145.52388839 127.48906477 C1145.52388839 128.14906477 1145.52388839 128.80906477 1145.52388839 129.48906477 C1146.18388839 129.48906477 1146.84388839 129.48906477 1147.52388839 129.48906477 C1147.52388839 130.80906477 1147.52388839 132.12906477 1147.52388839 133.48906477 C1148.18388839 133.48906477 1148.84388839 133.48906477 1149.52388839 133.48906477 C1149.52388839 134.14906477 1149.52388839 134.80906477 1149.52388839 135.48906477 C1150.18388839 135.48906477 1150.84388839 135.48906477 1151.52388839 135.48906477 C1151.52388839 136.14906477 1151.52388839 136.80906477 1151.52388839 137.48906477 C1152.18388839 137.48906477 1152.84388839 137.48906477 1153.52388839 137.48906477 C1153.52388839 138.80906477 1153.52388839 140.12906477 1153.52388839 141.48906477 C1154.18388839 141.48906477 1154.84388839 141.48906477 1155.52388839 141.48906477 C1155.52388839 142.14906477 1155.52388839 142.80906477 1155.52388839 143.48906477 C1156.18388839 143.48906477 1156.84388839 143.48906477 1157.52388839 143.48906477 C1157.52388839 144.80906477 1157.52388839 146.12906477 1157.52388839 147.48906477 C1158.18388839 147.48906477 1158.84388839 147.48906477 1159.52388839 147.48906477 C1159.52388839 148.14906477 1159.52388839 148.80906477 1159.52388839 149.48906477 C1160.18388839 149.48906477 1160.84388839 149.48906477 1161.52388839 149.48906477 C1161.52388839 150.80906477 1161.52388839 152.12906477 1161.52388839 153.48906477 C1162.18388839 153.48906477 1162.84388839 153.48906477 1163.52388839 153.48906477 C1163.52388839 154.14906477 1163.52388839 154.80906477 1163.52388839 155.48906477 C1164.18388839 155.48906477 1164.84388839 155.48906477 1165.52388839 155.48906477 C1165.52388839 156.80906477 1165.52388839 158.12906477 1165.52388839 159.48906477 C1166.18388839 159.48906477 1166.84388839 159.48906477 1167.52388839 159.48906477 C1167.52388839 160.80906477 1167.52388839 162.12906477 1167.52388839 163.48906477 C1168.18388839 163.48906477 1168.84388839 163.48906477 1169.52388839 163.48906477 C1169.52388839 164.14906477 1169.52388839 164.80906477 1169.52388839 165.48906477 C1170.18388839 165.48906477 1170.84388839 165.48906477 1171.52388839 165.48906477 C1171.52388839 166.80906477 1171.52388839 168.12906477 1171.52388839 169.48906477 C1172.18388839 169.48906477 1172.84388839 169.48906477 1173.52388839 169.48906477 C1173.52388839 170.80906477 1173.52388839 172.12906477 1173.52388839 173.48906477 C1174.18388839 173.48906477 1174.84388839 173.48906477 1175.52388839 173.48906477 C1175.52388839 174.80906477 1175.52388839 176.12906477 1175.52388839 177.48906477 C1176.18388839 177.48906477 1176.84388839 177.48906477 1177.52388839 177.48906477 C1177.52388839 178.80906477 1177.52388839 180.12906477 1177.52388839 181.48906477 C1178.18388839 181.48906477 1178.84388839 181.48906477 1179.52388839 181.48906477 C1179.52388839 182.80906477 1179.52388839 184.12906477 1179.52388839 185.48906477 C1180.18388839 185.48906477 1180.84388839 185.48906477 1181.52388839 185.48906477 C1181.52388839 186.80906477 1181.52388839 188.12906477 1181.52388839 189.48906477 C1182.18388839 189.48906477 1182.84388839 189.48906477 1183.52388839 189.48906477 C1183.52388839 190.80906477 1183.52388839 192.12906477 1183.52388839 193.48906477 C1184.18388839 193.48906477 1184.84388839 193.48906477 1185.52388839 193.48906477 C1185.52388839 194.80906477 1185.52388839 196.12906477 1185.52388839 197.48906477 C1186.18388839 197.48906477 1186.84388839 197.48906477 1187.52388839 197.48906477 C1187.52388839 198.80906477 1187.52388839 200.12906477 1187.52388839 201.48906477 C1188.18388839 201.48906477 1188.84388839 201.48906477 1189.52388839 201.48906477 C1189.52388839 203.46906477 1189.52388839 205.44906477 1189.52388839 207.48906477 C1190.18388839 207.48906477 1190.84388839 207.48906477 1191.52388839 207.48906477 C1191.52388839 209.46906477 1191.52388839 211.44906477 1191.52388839 213.48906477 C1192.18388839 213.48906477 1192.84388839 213.48906477 1193.52388839 213.48906477 C1193.52388839 215.46906477 1193.52388839 217.44906477 1193.52388839 219.48906477 C1194.18388839 219.48906477 1194.84388839 219.48906477 1195.52388839 219.48906477 C1195.52388839 221.46906477 1195.52388839 223.44906477 1195.52388839 225.48906477 C1196.18388839 225.48906477 1196.84388839 225.48906477 1197.52388839 225.48906477 C1197.52388839 227.46906477 1197.52388839 229.44906477 1197.52388839 231.48906477 C1198.18388839 231.48906477 1198.84388839 231.48906477 1199.52388839 231.48906477 C1199.52388839 233.46906477 1199.52388839 235.44906477 1199.52388839 237.48906477 C1200.18388839 237.48906477 1200.84388839 237.48906477 1201.52388839 237.48906477 C1201.52388839 240.12906477 1201.52388839 242.76906477 1201.52388839 245.48906477 C1202.18388839 245.48906477 1202.84388839 245.48906477 1203.52388839 245.48906477 C1203.52388839 246.80906477 1203.52388839 248.12906477 1203.52388839 249.48906477 C1204.18388839 249.48906477 1204.84388839 249.48906477 1205.52388839 249.48906477 C1205.52388839 252.12906477 1205.52388839 254.76906477 1205.52388839 257.48906477 C1206.18388839 257.48906477 1206.84388839 257.48906477 1207.52388839 257.48906477 C1207.52388839 260.12906477 1207.52388839 262.76906477 1207.52388839 265.48906477 C1208.18388839 265.48906477 1208.84388839 265.48906477 1209.52388839 265.48906477 C1209.52388839 269.44906477 1209.52388839 273.40906477 1209.52388839 277.48906477 C1210.18388839 277.48906477 1210.84388839 277.48906477 1211.52388839 277.48906477 C1211.52388839 607.81906477 1211.52388839 938.14906477 1211.52388839 1278.48906477 C1210.86388839 1278.48906477 1210.20388839 1278.48906477 1209.52388839 1278.48906477 C1209.52388839 1282.44906477 1209.52388839 1286.40906477 1209.52388839 1290.48906477 C1208.86388839 1290.48906477 1208.20388839 1290.48906477 1207.52388839 1290.48906477 C1207.52388839 1293.12906477 1207.52388839 1295.76906477 1207.52388839 1298.48906477 C1206.86388839 1298.48906477 1206.20388839 1298.48906477 1205.52388839 1298.48906477 C1205.52388839 1301.78906477 1205.52388839 1305.08906477 1205.52388839 1308.48906477 C1204.86388839 1308.48906477 1204.20388839 1308.48906477 1203.52388839 1308.48906477 C1203.52388839 1310.46906477 1203.52388839 1312.44906477 1203.52388839 1314.48906477 C1202.86388839 1314.48906477 1202.20388839 1314.48906477 1201.52388839 1314.48906477 C1201.52388839 1317.12906477 1201.52388839 1319.76906477 1201.52388839 1322.48906477 C1200.86388839 1322.48906477 1200.20388839 1322.48906477 1199.52388839 1322.48906477 C1199.52388839 1324.46906477 1199.52388839 1326.44906477 1199.52388839 1328.48906477 C1198.86388839 1328.48906477 1198.20388839 1328.48906477 1197.52388839 1328.48906477 C1197.52388839 1330.46906477 1197.52388839 1332.44906477 1197.52388839 1334.48906477 C1196.86388839 1334.48906477 1196.20388839 1334.48906477 1195.52388839 1334.48906477 C1195.52388839 1336.46906477 1195.52388839 1338.44906477 1195.52388839 1340.48906477 C1194.86388839 1340.48906477 1194.20388839 1340.48906477 1193.52388839 1340.48906477 C1193.52388839 1343.12906477 1193.52388839 1345.76906477 1193.52388839 1348.48906477 C1192.86388839 1348.48906477 1192.20388839 1348.48906477 1191.52388839 1348.48906477 C1191.52388839 1349.14906477 1191.52388839 1349.80906477 1191.52388839 1350.48906477 C1190.86388839 1350.48906477 1190.20388839 1350.48906477 1189.52388839 1350.48906477 C1189.52388839 1352.46906477 1189.52388839 1354.44906477 1189.52388839 1356.48906477 C1188.86388839 1356.48906477 1188.20388839 1356.48906477 1187.52388839 1356.48906477 C1187.52388839 1357.80906477 1187.52388839 1359.12906477 1187.52388839 1360.48906477 C1186.86388839 1360.48906477 1186.20388839 1360.48906477 1185.52388839 1360.48906477 C1185.52388839 1361.80906477 1185.52388839 1363.12906477 1185.52388839 1364.48906477 C1184.86388839 1364.48906477 1184.20388839 1364.48906477 1183.52388839 1364.48906477 C1183.52388839 1366.46906477 1183.52388839 1368.44906477 1183.52388839 1370.48906477 C1182.86388839 1370.48906477 1182.20388839 1370.48906477 1181.52388839 1370.48906477 C1181.52388839 1371.80906477 1181.52388839 1373.12906477 1181.52388839 1374.48906477 C1180.86388839 1374.48906477 1180.20388839 1374.48906477 1179.52388839 1374.48906477 C1179.52388839 1375.80906477 1179.52388839 1377.12906477 1179.52388839 1378.48906477 C1178.86388839 1378.48906477 1178.20388839 1378.48906477 1177.52388839 1378.48906477 C1177.52388839 1379.80906477 1177.52388839 1381.12906477 1177.52388839 1382.48906477 C1176.86388839 1382.48906477 1176.20388839 1382.48906477 1175.52388839 1382.48906477 C1175.52388839 1383.14906477 1175.52388839 1383.80906477 1175.52388839 1384.48906477 C1174.86388839 1384.48906477 1174.20388839 1384.48906477 1173.52388839 1384.48906477 C1173.52388839 1386.46906477 1173.52388839 1388.44906477 1173.52388839 1390.48906477 C1172.86388839 1390.48906477 1172.20388839 1390.48906477 1171.52388839 1390.48906477 C1171.52388839 1391.14906477 1171.52388839 1391.80906477 1171.52388839 1392.48906477 C1170.86388839 1392.48906477 1170.20388839 1392.48906477 1169.52388839 1392.48906477 C1169.52388839 1393.80906477 1169.52388839 1395.12906477 1169.52388839 1396.48906477 C1168.86388839 1396.48906477 1168.20388839 1396.48906477 1167.52388839 1396.48906477 C1167.52388839 1397.14906477 1167.52388839 1397.80906477 1167.52388839 1398.48906477 C1166.86388839 1398.48906477 1166.20388839 1398.48906477 1165.52388839 1398.48906477 C1165.52388839 1399.80906477 1165.52388839 1401.12906477 1165.52388839 1402.48906477 C1164.86388839 1402.48906477 1164.20388839 1402.48906477 1163.52388839 1402.48906477 C1163.52388839 1403.80906477 1163.52388839 1405.12906477 1163.52388839 1406.48906477 C1162.86388839 1406.48906477 1162.20388839 1406.48906477 1161.52388839 1406.48906477 C1161.52388839 1407.14906477 1161.52388839 1407.80906477 1161.52388839 1408.48906477 C1160.86388839 1408.48906477 1160.20388839 1408.48906477 1159.52388839 1408.48906477 C1159.52388839 1409.80906477 1159.52388839 1411.12906477 1159.52388839 1412.48906477 C1158.86388839 1412.48906477 1158.20388839 1412.48906477 1157.52388839 1412.48906477 C1157.52388839 1413.14906477 1157.52388839 1413.80906477 1157.52388839 1414.48906477 C1156.86388839 1414.48906477 1156.20388839 1414.48906477 1155.52388839 1414.48906477 C1155.52388839 1415.80906477 1155.52388839 1417.12906477 1155.52388839 1418.48906477 C1154.86388839 1418.48906477 1154.20388839 1418.48906477 1153.52388839 1418.48906477 C1153.52388839 1419.14906477 1153.52388839 1419.80906477 1153.52388839 1420.48906477 C1152.86388839 1420.48906477 1152.20388839 1420.48906477 1151.52388839 1420.48906477 C1151.52388839 1421.80906477 1151.52388839 1423.12906477 1151.52388839 1424.48906477 C1150.86388839 1424.48906477 1150.20388839 1424.48906477 1149.52388839 1424.48906477 C1149.52388839 1425.14906477 1149.52388839 1425.80906477 1149.52388839 1426.48906477 C1148.86388839 1426.48906477 1148.20388839 1426.48906477 1147.52388839 1426.48906477 C1147.52388839 1427.14906477 1147.52388839 1427.80906477 1147.52388839 1428.48906477 C1146.86388839 1428.48906477 1146.20388839 1428.48906477 1145.52388839 1428.48906477 C1145.52388839 1429.14906477 1145.52388839 1429.80906477 1145.52388839 1430.48906477 C1144.86388839 1430.48906477 1144.20388839 1430.48906477 1143.52388839 1430.48906477 C1143.52388839 1431.80906477 1143.52388839 1433.12906477 1143.52388839 1434.48906477 C1142.86388839 1434.48906477 1142.20388839 1434.48906477 1141.52388839 1434.48906477 C1141.52388839 1435.14906477 1141.52388839 1435.80906477 1141.52388839 1436.48906477 C1140.86388839 1436.48906477 1140.20388839 1436.48906477 1139.52388839 1436.48906477 C1139.52388839 1437.14906477 1139.52388839 1437.80906477 1139.52388839 1438.48906477 C1138.86388839 1438.48906477 1138.20388839 1438.48906477 1137.52388839 1438.48906477 C1137.52388839 1439.14906477 1137.52388839 1439.80906477 1137.52388839 1440.48906477 C1136.86388839 1440.48906477 1136.20388839 1440.48906477 1135.52388839 1440.48906477 C1135.52388839 1441.80906477 1135.52388839 1443.12906477 1135.52388839 1444.48906477 C1134.86388839 1444.48906477 1134.20388839 1444.48906477 1133.52388839 1444.48906477 C1133.52388839 1445.14906477 1133.52388839 1445.80906477 1133.52388839 1446.48906477 C1132.86388839 1446.48906477 1132.20388839 1446.48906477 1131.52388839 1446.48906477 C1131.52388839 1447.14906477 1131.52388839 1447.80906477 1131.52388839 1448.48906477 C1130.86388839 1448.48906477 1130.20388839 1448.48906477 1129.52388839 1448.48906477 C1129.52388839 1449.14906477 1129.52388839 1449.80906477 1129.52388839 1450.48906477 C1128.86388839 1450.48906477 1128.20388839 1450.48906477 1127.52388839 1450.48906477 C1127.52388839 1451.14906477 1127.52388839 1451.80906477 1127.52388839 1452.48906477 C1126.86388839 1452.48906477 1126.20388839 1452.48906477 1125.52388839 1452.48906477 C1125.52388839 1453.14906477 1125.52388839 1453.80906477 1125.52388839 1454.48906477 C1124.86388839 1454.48906477 1124.20388839 1454.48906477 1123.52388839 1454.48906477 C1123.52388839 1455.14906477 1123.52388839 1455.80906477 1123.52388839 1456.48906477 C1122.86388839 1456.48906477 1122.20388839 1456.48906477 1121.52388839 1456.48906477 C1121.52388839 1457.14906477 1121.52388839 1457.80906477 1121.52388839 1458.48906477 C1120.86388839 1458.48906477 1120.20388839 1458.48906477 1119.52388839 1458.48906477 C1119.52388839 1459.14906477 1119.52388839 1459.80906477 1119.52388839 1460.48906477 C1118.86388839 1460.48906477 1118.20388839 1460.48906477 1117.52388839 1460.48906477 C1117.52388839 1461.14906477 1117.52388839 1461.80906477 1117.52388839 1462.48906477 C1116.86388839 1462.48906477 1116.20388839 1462.48906477 1115.52388839 1462.48906477 C1115.52388839 1463.14906477 1115.52388839 1463.80906477 1115.52388839 1464.48906477 C1114.86388839 1464.48906477 1114.20388839 1464.48906477 1113.52388839 1464.48906477 C1113.52388839 1465.14906477 1113.52388839 1465.80906477 1113.52388839 1466.48906477 C1112.86388839 1466.48906477 1112.20388839 1466.48906477 1111.52388839 1466.48906477 C1111.52388839 1467.14906477 1111.52388839 1467.80906477 1111.52388839 1468.48906477 C1110.86388839 1468.48906477 1110.20388839 1468.48906477 1109.52388839 1468.48906477 C1109.52388839 1469.14906477 1109.52388839 1469.80906477 1109.52388839 1470.48906477 C1108.86388839 1470.48906477 1108.20388839 1470.48906477 1107.52388839 1470.48906477 C1107.52388839 1471.14906477 1107.52388839 1471.80906477 1107.52388839 1472.48906477 C1106.86388839 1472.48906477 1106.20388839 1472.48906477 1105.52388839 1472.48906477 C1105.52388839 1473.14906477 1105.52388839 1473.80906477 1105.52388839 1474.48906477 C1104.86388839 1474.48906477 1104.20388839 1474.48906477 1103.52388839 1474.48906477 C1103.52388839 1475.14906477 1103.52388839 1475.80906477 1103.52388839 1476.48906477 C1102.86388839 1476.48906477 1102.20388839 1476.48906477 1101.52388839 1476.48906477 C1101.52388839 1477.14906477 1101.52388839 1477.80906477 1101.52388839 1478.48906477 C1100.20388839 1478.48906477 1098.88388839 1478.48906477 1097.52388839 1478.48906477 C1097.52388839 1479.14906477 1097.52388839 1479.80906477 1097.52388839 1480.48906477 C1096.86388839 1480.48906477 1096.20388839 1480.48906477 1095.52388839 1480.48906477 C1095.52388839 1481.14906477 1095.52388839 1481.80906477 1095.52388839 1482.48906477 C1094.86388839 1482.48906477 1094.20388839 1482.48906477 1093.52388839 1482.48906477 C1093.52388839 1483.14906477 1093.52388839 1483.80906477 1093.52388839 1484.48906477 C1092.86388839 1484.48906477 1092.20388839 1484.48906477 1091.52388839 1484.48906477 C1091.52388839 1485.14906477 1091.52388839 1485.80906477 1091.52388839 1486.48906477 C1090.20388839 1486.48906477 1088.88388839 1486.48906477 1087.52388839 1486.48906477 C1087.52388839 1487.14906477 1087.52388839 1487.80906477 1087.52388839 1488.48906477 C1086.86388839 1488.48906477 1086.20388839 1488.48906477 1085.52388839 1488.48906477 C1085.52388839 1489.14906477 1085.52388839 1489.80906477 1085.52388839 1490.48906477 C1084.86388839 1490.48906477 1084.20388839 1490.48906477 1083.52388839 1490.48906477 C1083.52388839 1491.14906477 1083.52388839 1491.80906477 1083.52388839 1492.48906477 C1082.20388839 1492.48906477 1080.88388839 1492.48906477 1079.52388839 1492.48906477 C1079.52388839 1493.14906477 1079.52388839 1493.80906477 1079.52388839 1494.48906477 C1078.86388839 1494.48906477 1078.20388839 1494.48906477 1077.52388839 1494.48906477 C1077.52388839 1495.14906477 1077.52388839 1495.80906477 1077.52388839 1496.48906477 C1076.86388839 1496.48906477 1076.20388839 1496.48906477 1075.52388839 1496.48906477 C1075.52388839 1497.14906477 1075.52388839 1497.80906477 1075.52388839 1498.48906477 C1074.20388839 1498.48906477 1072.88388839 1498.48906477 1071.52388839 1498.48906477 C1071.52388839 1499.14906477 1071.52388839 1499.80906477 1071.52388839 1500.48906477 C1070.86388839 1500.48906477 1070.20388839 1500.48906477 1069.52388839 1500.48906477 C1069.52388839 1501.14906477 1069.52388839 1501.80906477 1069.52388839 1502.48906477 C1068.20388839 1502.48906477 1066.88388839 1502.48906477 1065.52388839 1502.48906477 C1065.52388839 1503.14906477 1065.52388839 1503.80906477 1065.52388839 1504.48906477 C1064.20388839 1504.48906477 1062.88388839 1504.48906477 1061.52388839 1504.48906477 C1061.52388839 1505.14906477 1061.52388839 1505.80906477 1061.52388839 1506.48906477 C1060.86388839 1506.48906477 1060.20388839 1506.48906477 1059.52388839 1506.48906477 C1059.52388839 1507.14906477 1059.52388839 1507.80906477 1059.52388839 1508.48906477 C1058.86388839 1508.48906477 1058.20388839 1508.48906477 1057.52388839 1508.48906477 C1057.52388839 1509.14906477 1057.52388839 1509.80906477 1057.52388839 1510.48906477 C1056.20388839 1510.48906477 1054.88388839 1510.48906477 1053.52388839 1510.48906477 C1053.52388839 1511.14906477 1053.52388839 1511.80906477 1053.52388839 1512.48906477 C1052.20388839 1512.48906477 1050.88388839 1512.48906477 1049.52388839 1512.48906477 C1049.52388839 1513.14906477 1049.52388839 1513.80906477 1049.52388839 1514.48906477 C1048.20388839 1514.48906477 1046.88388839 1514.48906477 1045.52388839 1514.48906477 C1045.52388839 1515.14906477 1045.52388839 1515.80906477 1045.52388839 1516.48906477 C1044.86388839 1516.48906477 1044.20388839 1516.48906477 1043.52388839 1516.48906477 C1043.52388839 1517.14906477 1043.52388839 1517.80906477 1043.52388839 1518.48906477 C1041.54388839 1518.48906477 1039.56388839 1518.48906477 1037.52388839 1518.48906477 C1037.52388839 1519.14906477 1037.52388839 1519.80906477 1037.52388839 1520.48906477 C1036.20388839 1520.48906477 1034.88388839 1520.48906477 1033.52388839 1520.48906477 C1033.52388839 1521.14906477 1033.52388839 1521.80906477 1033.52388839 1522.48906477 C1032.20388839 1522.48906477 1030.88388839 1522.48906477 1029.52388839 1522.48906477 C1029.52388839 1523.14906477 1029.52388839 1523.80906477 1029.52388839 1524.48906477 C1028.20388839 1524.48906477 1026.88388839 1524.48906477 1025.52388839 1524.48906477 C1025.52388839 1525.14906477 1025.52388839 1525.80906477 1025.52388839 1526.48906477 C1024.20388839 1526.48906477 1022.88388839 1526.48906477 1021.52388839 1526.48906477 C1021.52388839 1527.14906477 1021.52388839 1527.80906477 1021.52388839 1528.48906477 C1020.20388839 1528.48906477 1018.88388839 1528.48906477 1017.52388839 1528.48906477 C1017.52388839 1529.14906477 1017.52388839 1529.80906477 1017.52388839 1530.48906477 C1015.54388839 1530.48906477 1013.56388839 1530.48906477 1011.52388839 1530.48906477 C1011.52388839 1531.14906477 1011.52388839 1531.80906477 1011.52388839 1532.48906477 C1010.20388839 1532.48906477 1008.88388839 1532.48906477 1007.52388839 1532.48906477 C1007.52388839 1533.14906477 1007.52388839 1533.80906477 1007.52388839 1534.48906477 C1005.54388839 1534.48906477 1003.56388839 1534.48906477 1001.52388839 1534.48906477 C1001.52388839 1535.14906477 1001.52388839 1535.80906477 1001.52388839 1536.48906477 C1000.86388839 1536.48906477 1000.20388839 1536.48906477 999.52388839 1536.48906477 C999.52388839 1537.14906477 999.52388839 1537.80906477 999.52388839 1538.48906477 C997.54388839 1538.48906477 995.56388839 1538.48906477 993.52388839 1538.48906477 C993.52388839 1539.14906477 993.52388839 1539.80906477 993.52388839 1540.48906477 C991.54388839 1540.48906477 989.56388839 1540.48906477 987.52388839 1540.48906477 C987.52388839 1541.14906477 987.52388839 1541.80906477 987.52388839 1542.48906477 C985.54388839 1542.48906477 983.56388839 1542.48906477 981.52388839 1542.48906477 C981.52388839 1543.14906477 981.52388839 1543.80906477 981.52388839 1544.48906477 C978.88388839 1544.48906477 976.24388839 1544.48906477 973.52388839 1544.48906477 C973.52388839 1545.14906477 973.52388839 1545.80906477 973.52388839 1546.48906477 C970.22388839 1546.48906477 966.92388839 1546.48906477 963.52388839 1546.48906477 C963.52388839 1547.14906477 963.52388839 1547.80906477 963.52388839 1548.48906477 C962.90900558 1548.54965071 962.29412277 1548.61023665 961.66060714 1548.67265852 C960.85236495 1548.75644758 960.04412277 1548.84023665 959.21138839 1548.92656477 C958.41088058 1549.00777571 957.61037277 1549.08898665 956.78560714 1549.17265852 C954.3630166 1549.4417217 954.3630166 1549.4417217 951.52388839 1550.48906477 C951.52388839 1551.80906477 951.52388839 1553.12906477 951.52388839 1554.48906477 C946.91596515 1554.65724272 942.30786102 1554.81774027 937.6994255 1554.97124251 C936.13294674 1555.02448887 934.56653682 1555.07980366 933.00020675 1555.13725813 C930.74392868 1555.21965635 928.4875046 1555.29452107 926.23091964 1555.36797102 C925.53489135 1555.39500609 924.83886306 1555.42204115 924.121743 1555.44989546 C920.43206849 1555.56218978 917.10884962 1555.39061726 913.52388839 1554.48906477 C913.52388839 1555.47906477 913.52388839 1556.46906477 913.52388839 1557.48906477 C823.66326961 1557.55765259 733.80264764 1557.62125101 643.94200973 1557.65843733 C642.59768676 1557.65899513 641.25336379 1557.65955294 639.90904082 1557.66011075 C611.68700137 1557.67180326 583.46496165 1557.68266992 555.24292153 1557.69258348 C541.06457964 1557.69756479 526.88623781 1557.70270468 512.70789604 1557.70799454 C510.56924018 1557.70879154 508.43058433 1557.70958401 506.29192847 1557.71037629 C473.38696455 1557.72260609 440.48200657 1557.73822215 407.57705001 1557.76372297 C406.51703995 1557.76454437 406.51703995 1557.76454437 405.43561554 1557.76538235 C394.04304593 1557.77423107 382.65047655 1557.7833658 371.2579072 1557.79253853 C338.41570493 1557.81897708 305.57350725 1557.84327614 272.73129539 1557.85362395 C272.05491227 1557.85383809 271.37852916 1557.85405223 270.68164958 1557.85427286 C255.82796039 1557.85893756 240.97427114 1557.86251621 226.12058144 1557.8650687 C220.14257632 1557.86611509 214.16457123 1557.86731978 208.18656616 1557.86857374 C206.87874534 1557.86884344 205.57092453 1557.86911313 204.22347278 1557.86939099 C183.20771421 1557.87410993 162.19198965 1557.89264073 141.17624493 1557.91639291 C120.02620214 1557.94000007 98.87619291 1557.94892215 77.72613743 1557.94307028 C65.17486836 1557.94003796 52.62372254 1557.94804915 40.07247583 1557.97225494 C31.66786867 1557.98734978 23.26334142 1557.98765307 14.85872856 1557.97639203 C10.08293429 1557.97040288 5.30737164 1557.97040318 0.53160306 1557.9885975 C-38.21116432 1558.12746725 -75.44185058 1553.44122203 -112.47611161 1541.48906477 C-113.4704622 1541.16986067 -114.46481278 1540.85065657 -115.4892952 1540.52177962 C-171.56118496 1522.20466107 -224.55024481 1486.83356419 -262.47611161 1441.48906477 C-263.33849442 1440.50035383 -264.20087723 1439.5116429 -265.08939286 1438.49297102 C-308.98686289 1387.1892874 -330.62079978 1325.13570636 -341.57669755 1259.38506087 C-342.17065585 1255.82902822 -342.17065585 1255.82902822 -343.47611161 1252.48906477 C-343.5729453 1250.39036015 -343.60284295 1248.28848261 -343.60376211 1246.18754544 C-343.60541289 1245.52942756 -343.60706367 1244.87130968 -343.60876447 1244.19324883 C-343.61311862 1241.96203245 -343.61027908 1239.73088113 -343.60753937 1237.49966295 C-343.60918763 1235.88732546 -343.61127327 1234.27498836 -343.61375948 1232.66265194 C-343.61935372 1228.19518154 -343.6186487 1223.7277302 -343.61698189 1219.26025741 C-343.6162538 1214.41380728 -343.62126663 1209.56736267 -343.6255569 1204.72091486 C-343.63315593 1195.0918873 -343.63533093 1185.46286529 -343.63588596 1175.83383505 C-343.63679774 1164.30690046 -343.64345978 1152.77997103 -343.65023278 1141.25303866 C-343.66631508 1113.38675434 -343.67219874 1085.52047056 -343.67698153 1057.65418244 C-343.6793154 1044.47718636 -343.68291784 1031.30019071 -343.68667691 1018.12319497 C-343.69931354 973.74416681 -343.71012656 929.36513878 -343.71351737 884.98610886 C-343.71367961 882.86420753 -343.71384517 880.74230621 -343.71401175 878.62040488 C-343.71434556 874.36480792 -343.71467604 870.10921096 -343.71500631 865.85361399 C-343.71539321 860.87120971 -343.71578282 855.88880544 -343.71617737 850.90640116 C-343.71628979 849.48038928 -343.71640121 848.05437739 -343.71651163 846.62836551 C-343.72006069 800.83461522 -343.73513649 755.04088062 -343.75844937 709.24713632 C-343.77519046 676.34910851 -343.79066594 643.45108367 -343.79518433 610.55305155 C-343.79527782 609.87650144 -343.7953713 609.19995133 -343.79546762 608.5028997 C-343.79739601 594.31779806 -343.79860347 580.13269644 -343.79894859 565.94759468 C-343.79911275 559.30473507 -343.79937216 552.66187547 -343.79968186 546.01901587 C-343.79973763 544.71159017 -343.7997934 543.40416447 -343.79985086 542.0571198 C-343.80100265 520.99495517 -343.81203565 499.93280675 -343.82656892 478.8706476 C-343.84091939 457.70773631 -343.84417913 436.54484585 -343.83612894 415.38193103 C-343.83166569 402.80224019 -343.83556103 390.22261646 -343.85136744 377.6429344 C-343.86109614 369.24369762 -343.8599594 360.84450802 -343.84993122 352.4452717 C-343.84452391 347.6570301 -343.84387815 342.86891765 -343.85643994 338.0806866 C-343.86777685 333.72304155 -343.86525668 329.36563078 -343.85177286 325.00799386 C-343.84934099 323.44290848 -343.85191538 321.87780507 -343.86016934 320.31273957 C-343.89850678 312.53065728 -343.64120268 305.33153251 -341.20931256 297.86449166 C-339.83573079 293.41435687 -339.37573957 288.77743709 -338.72611161 284.17656477 C-334.19000432 254.47527445 -326.30195542 225.76599085 -313.45120927 198.56279524 C-312.46463018 196.46464733 -311.50520675 194.35571376 -310.55033036 192.24297102 C-303.73590862 177.28724391 -295.91017419 162.96144911 -286.47611161 149.48906477 C-285.58493432 148.18475446 -284.69434874 146.88003973 -283.80423661 145.57500227 C-268.13086401 122.77808975 -249.54309738 101.46957562 -228.47611161 83.48906477 C-227.56474442 82.68855696 -226.65337723 81.88804915 -225.71439286 81.06328352 C-178.89995344 40.25783922 -121.42146401 15.97035655 -60.67736335 5.3044618 C-57.96791484 4.80598668 -55.39028907 4.19998989 -52.7184958 3.48868736 C-35.49726332 -0.96479794 -17.64402803 -0.06470495 0 0 Z " fill="#0045E0" transform="translate(343.4761116094887,-0.489064771682024)"/>
<path d="M0 0 C2.46005793 0.00748106 4.92012191 0.01316514 7.38018799 0.01715088 C13.78506577 0.03226043 20.18956774 0.07141214 26.59429932 0.1159668 C33.15786661 0.15724003 39.72149597 0.17522966 46.28515625 0.1953125 C59.11213743 0.23792348 71.93886102 0.3051986 84.765625 0.390625 C85.68188439 3.13940318 85.9751995 5.1531687 86.16015625 8.01171875 C88.01421077 33.97978727 93.25729655 57.43261745 105.765625 80.390625 C106.33152344 81.44894531 106.89742188 82.50726563 107.48046875 83.59765625 C114.0295928 95.35526014 122.556295 105.62468714 131.765625 115.390625 C132.69761719 116.40189453 132.69761719 116.40189453 133.6484375 117.43359375 C152.51771167 137.21080371 180.10922114 151.7418465 206.7265625 157.65234375 C208.765625 158.390625 208.765625 158.390625 210.765625 161.390625 C211.01402199 164.20620364 211.01402199 164.20620364 211.01172066 167.70998669 C211.01402835 168.35671859 211.01633603 169.0034505 211.01871365 169.66978034 C211.02403644 171.85182952 211.01501089 174.03358762 211.00613403 176.21562195 C211.00700564 177.78976076 211.00875578 179.36389929 211.01131237 180.93803626 C211.01579882 185.27529473 211.00776446 189.61245501 210.99775624 193.94970095 C210.98914267 198.62249354 210.99204042 203.29528032 210.99356079 207.96807861 C210.99461097 216.06788641 210.98832049 224.16766206 210.97708511 232.26746178 C210.96085107 243.97849887 210.95562426 255.68952038 210.95310913 267.40056751 C210.94872873 286.39962218 210.93541028 305.39865972 210.91650391 324.39770508 C210.89815403 342.85668858 210.88399316 361.31566743 210.87548828 379.7746582 C210.87470011 381.48054392 210.87470011 381.48054392 210.87389602 383.22089197 C210.871286 388.92601119 210.86875857 394.63113044 210.86627221 400.33624971 C210.84552897 447.68771999 210.81029406 495.03917166 210.765625 542.390625 C206.5886599 544.21314065 202.66591093 545.81040711 198.2109375 546.78515625 C196.68424438 547.12969849 196.68424438 547.12969849 195.12670898 547.48120117 C194.05880127 547.71943604 192.99089355 547.9576709 191.890625 548.203125 C151.83937921 557.56046045 115.20146828 577.612811 85.765625 606.390625 C84.84910156 607.256875 83.93257813 608.123125 82.98828125 609.015625 C63.56014528 627.76255004 46.9731395 652.40825405 36.765625 677.390625 C36.38019531 678.32986816 35.99476563 679.26911133 35.59765625 680.23681641 C29.23546446 695.98324108 24.47929453 711.70306778 21.33032227 728.39794922 C20.9771006 730.26988659 20.5987533 732.13745459 20.18334961 733.99658203 C17.94613436 744.96183444 18.32771567 756.24983552 18.328125 767.390625 C18.32639282 768.50434479 18.32466064 769.61806458 18.32287598 770.76553345 C18.33480649 788.2134328 19.48389801 804.42253962 23.765625 821.390625 C24.08278001 822.80003094 24.39695226 824.21011416 24.70703125 825.62109375 C28.57877457 841.81991221 34.77720314 857.75868155 42.69287109 872.40136719 C43.82718938 874.50478671 44.93067501 876.62296705 46.03515625 878.7421875 C54.61205024 894.94005858 65.13760673 909.1486026 77.765625 922.390625 C78.91944703 923.73799137 80.06615864 925.09150505 81.203125 926.453125 C111.5747615 961.27639616 158.00273672 983.75255056 202.85180664 992.09863281 C208.56459804 993.18959804 208.56459804 993.18959804 210.765625 995.390625 C211.01862466 998.16190952 211.01862466 998.16190952 211.02289391 1001.78158474 C211.02639998 1002.44821287 211.02990605 1003.114841 211.03351837 1003.80166999 C211.042895 1006.05743126 211.03789314 1008.31293788 211.03305054 1010.56871033 C211.03678365 1012.19347186 211.04138381 1013.8182316 211.04678118 1015.44298846 C211.05906846 1019.92491842 211.05874402 1024.40677407 211.05639243 1028.88871706 C211.05598571 1033.71565373 211.06700951 1038.54256611 211.07650757 1043.36949158 C211.09314959 1052.83251834 211.09861855 1062.29552019 211.09973232 1071.75856035 C211.10068123 1079.44680206 211.10478361 1087.13503551 211.11113358 1094.82327461 C211.12875426 1116.5992517 211.13797108 1138.37520904 211.13647263 1160.15119331 C211.13635276 1161.91362923 211.13635276 1161.91362923 211.13623047 1163.71166992 C211.13614871 1164.88805421 211.13606695 1166.06443849 211.13598271 1167.27647079 C211.13516944 1186.3506039 211.15431524 1205.4246581 211.1825072 1224.49876838 C211.21119611 1244.06275652 211.22504972 1263.62670613 211.22331965 1283.19071585 C211.22265439 1294.18296835 211.22820593 1305.17513813 211.24967575 1316.16737175 C211.26783506 1325.52496626 211.27227826 1334.88244056 211.2586569 1344.240045 C211.25210075 1349.01811844 211.25210484 1353.79596091 211.2693634 1358.57401276 C211.28498298 1362.94308075 211.28234561 1367.31173251 211.26479514 1371.68078966 C211.26170053 1373.2662389 211.26544912 1374.85171836 211.27651529 1376.43713199 C211.2905096 1378.58320895 211.28015328 1380.72779997 211.26340294 1382.87382412 C211.26405504 1384.66580688 211.26405504 1384.66580688 211.26472032 1386.49399132 C210.765625 1389.390625 210.765625 1389.390625 208.94520724 1391.22175318 C205.87333981 1392.86914194 202.63877058 1393.84903052 199.328125 1394.890625 C160.59209669 1407.94220087 130.64740327 1437.32870135 112.07299805 1473.16992188 C100.53847651 1496.48710127 94.88338852 1521.16630626 93.44750977 1546.98852539 C93.38490967 1548.05192139 93.32230957 1549.11531738 93.2578125 1550.2109375 C93.18602783 1551.63817139 93.18602783 1551.63817139 93.11279297 1553.09423828 C92.765625 1555.390625 92.765625 1555.390625 90.765625 1557.390625 C88.82294846 1557.64789391 88.82294846 1557.64789391 86.39910889 1557.65805054 C85.48050079 1557.66658051 84.5618927 1557.67511047 83.615448 1557.68389893 C82.09795456 1557.68253937 82.09795456 1557.68253937 80.54980469 1557.68115234 C78.95378922 1557.69122818 78.95378922 1557.69122818 77.32553101 1557.70150757 C73.77947385 1557.72061537 70.23360559 1557.72442173 66.6875 1557.7265625 C64.2063184 1557.73299428 61.72513755 1557.73972293 59.24395752 1557.74673462 C54.01483959 1557.75874801 48.78576904 1557.76249824 43.55664062 1557.76123047 C38.24596471 1557.76017502 32.93562582 1557.77469913 27.625 1557.80224609 C-28.63091928 1558.09010194 -28.63091928 1558.09010194 -53.234375 1553.390625 C-55.5052587 1552.98624473 -57.77642161 1552.5834295 -60.04785156 1552.18212891 C-74.40659358 1549.62632471 -88.3629033 1545.86739885 -102.234375 1541.390625 C-103.22872559 1541.0714209 -104.22307617 1540.7522168 -105.24755859 1540.42333984 C-161.31944835 1522.1062213 -214.3085082 1486.73512442 -252.234375 1441.390625 C-253.09675781 1440.40191406 -253.95914063 1439.41320313 -254.84765625 1438.39453125 C-298.74512628 1387.09084763 -320.37906317 1325.03726659 -331.33496094 1259.28662109 C-331.92891924 1255.73058845 -331.92891924 1255.73058845 -333.234375 1252.390625 C-333.33120869 1250.29192038 -333.36110634 1248.19004284 -333.3620255 1246.08910567 C-333.36367628 1245.43098779 -333.36532706 1244.77286991 -333.36702786 1244.09480906 C-333.37138201 1241.86359267 -333.36854247 1239.63244136 -333.36580276 1237.40122318 C-333.36745103 1235.78888569 -333.36953666 1234.17654859 -333.37202287 1232.56421217 C-333.37761711 1228.09674177 -333.37691209 1223.62929043 -333.37524528 1219.16181764 C-333.37451719 1214.31536751 -333.37953002 1209.4689229 -333.3838203 1204.62247509 C-333.39141932 1194.99344753 -333.39359432 1185.36442552 -333.39414935 1175.73539528 C-333.39506113 1164.20846069 -333.40172317 1152.68153126 -333.40849617 1141.15459889 C-333.42457847 1113.28831457 -333.43046213 1085.42203079 -333.43524492 1057.55574267 C-333.43757879 1044.37874659 -333.44118123 1031.20175094 -333.4449403 1018.0247552 C-333.45757693 973.64572704 -333.46838995 929.26669901 -333.47178076 884.88766909 C-333.471943 882.76576776 -333.47210856 880.64386644 -333.47227514 878.52196511 C-333.47260895 874.26636815 -333.47293943 870.01077118 -333.4732697 865.75517422 C-333.4736566 860.77276994 -333.47404621 855.79036566 -333.47444077 850.80796139 C-333.47455318 849.38194951 -333.4746646 847.95593762 -333.47477502 846.52992574 C-333.47832408 800.73617545 -333.49339988 754.94244085 -333.51671276 709.14869655 C-333.53345385 676.25066874 -333.54892933 643.3526439 -333.55344772 610.45461178 C-333.55354121 609.77806167 -333.5536347 609.10151156 -333.55373101 608.40445993 C-333.5556594 594.21935829 -333.55686686 580.03425667 -333.55721198 565.8491549 C-333.55737614 559.2062953 -333.55763555 552.5634357 -333.55794525 545.9205761 C-333.55800102 544.61315039 -333.55805679 543.30572469 -333.55811425 541.95868003 C-333.55926604 520.8965154 -333.57029904 499.83436698 -333.58483231 478.77220783 C-333.59918278 457.60929654 -333.60244252 436.44640608 -333.59439233 415.28349126 C-333.58992908 402.70380041 -333.59382442 390.12417668 -333.60963084 377.54449463 C-333.61935953 369.14525785 -333.61822279 360.74606824 -333.60819461 352.34683193 C-333.6027873 347.55859033 -333.60214154 342.77047788 -333.61470333 337.98224682 C-333.62604024 333.62460178 -333.62352007 329.26719101 -333.61003625 324.90955409 C-333.60760438 323.34446871 -333.61017877 321.7793653 -333.61843273 320.21429979 C-333.65677017 312.43221751 -333.39946607 305.23309273 -330.96757595 297.76605188 C-329.59399418 293.3159171 -329.13400296 288.67899732 -328.484375 284.078125 C-323.94826771 254.37683468 -316.06021881 225.66755107 -303.20947266 198.46435547 C-302.22289357 196.36620756 -301.26347014 194.25727399 -300.30859375 192.14453125 C-293.49417201 177.18880414 -285.66843758 162.86300933 -276.234375 149.390625 C-275.34319771 148.08631468 -274.45261213 146.78159996 -273.5625 145.4765625 C-257.8891274 122.67964998 -239.30136077 101.37113585 -218.234375 83.390625 C-217.32300781 82.59011719 -216.41164063 81.78960937 -215.47265625 80.96484375 C-168.61516361 40.12187244 -111.23579663 16.01919393 -50.48698425 5.20637512 C-47.63880108 4.68082502 -44.8290919 4.06938652 -42.01454163 3.3870697 C-27.95978444 0.08460378 -14.38266747 -0.13036432 0 0 Z " fill="#0045DF" transform="translate(333.234375,-0.390625)"/>
<path d="M0 0 C1.02333204 -0.00699811 2.04666408 -0.01399621 3.10100618 -0.02120638 C4.79595832 -0.00981359 4.79595832 -0.00981359 6.52515191 0.00180936 C7.72610433 -0.00195177 8.92705676 -0.0057129 10.16440168 -0.009588 C13.5190296 -0.01702651 16.87315164 -0.01090975 20.22773609 0.00074622 C23.86979912 0.01012092 27.51182958 0.00215769 31.15389431 -0.0036521 C37.54499657 -0.01142892 43.93601778 -0.0079946 50.32711476 0.00267148 C59.83253117 0.01849095 69.3378908 0.01719886 78.84331639 0.0123792 C94.84092709 0.00477659 110.83850334 0.01132615 126.83610791 0.02599072 C142.70654191 0.04052089 158.57696083 0.04927696 174.4474017 0.05017591 C175.92775671 0.05026755 175.92775671 0.05026755 177.43801787 0.05036104 C181.44445114 0.05059057 185.4508844 0.05077774 189.45731767 0.05090918 C226.01396711 0.05212191 262.57059551 0.06783646 299.12723607 0.09249616 C333.57482887 0.11572787 368.02240893 0.12995402 402.47000951 0.13351178 C403.52860255 0.1336233 404.5871956 0.13373481 405.67786723 0.13384971 C409.94601329 0.13429859 414.21415935 0.13474058 418.48230541 0.13518213 C420.60972069 0.13540252 422.73713596 0.13562381 424.86455124 0.13584601 C426.98701287 0.13606738 429.10947449 0.13628615 431.23193612 0.13650232 C465.15718471 0.14003023 499.08243092 0.15149731 533.00767711 0.16430865 C542.92002192 0.16801549 552.83236657 0.1712833 562.74471182 0.17355752 C583.60420373 0.17838932 604.46368802 0.18558498 625.32317469 0.20170519 C633.94541378 0.20829878 642.56764687 0.21349472 651.18988866 0.21416593 C658.35802406 0.21472613 665.52614775 0.21870321 672.6942786 0.22694184 C676.28683654 0.23098072 679.87937755 0.23367823 683.47193769 0.23182663 C705.36576203 0.22550655 727.17977546 0.79742138 749.08011693 1.37374616 C749.08011693 154.82374616 749.08011693 308.27374616 749.08011693 466.37374616 C748.42011693 466.37374616 747.76011693 466.37374616 747.08011693 466.37374616 C747.08011693 470.33374616 747.08011693 474.29374616 747.08011693 478.37374616 C746.42011693 478.37374616 745.76011693 478.37374616 745.08011693 478.37374616 C745.08011693 481.01374616 745.08011693 483.65374616 745.08011693 486.37374616 C744.42011693 486.37374616 743.76011693 486.37374616 743.08011693 486.37374616 C743.08011693 489.67374616 743.08011693 492.97374616 743.08011693 496.37374616 C742.42011693 496.37374616 741.76011693 496.37374616 741.08011693 496.37374616 C741.08011693 498.35374616 741.08011693 500.33374616 741.08011693 502.37374616 C740.42011693 502.37374616 739.76011693 502.37374616 739.08011693 502.37374616 C739.08011693 505.01374616 739.08011693 507.65374616 739.08011693 510.37374616 C738.42011693 510.37374616 737.76011693 510.37374616 737.08011693 510.37374616 C737.08011693 512.35374616 737.08011693 514.33374616 737.08011693 516.37374616 C736.42011693 516.37374616 735.76011693 516.37374616 735.08011693 516.37374616 C735.08011693 518.35374616 735.08011693 520.33374616 735.08011693 522.37374616 C734.42011693 522.37374616 733.76011693 522.37374616 733.08011693 522.37374616 C733.08011693 524.35374616 733.08011693 526.33374616 733.08011693 528.37374616 C732.42011693 528.37374616 731.76011693 528.37374616 731.08011693 528.37374616 C731.08011693 531.01374616 731.08011693 533.65374616 731.08011693 536.37374616 C730.42011693 536.37374616 729.76011693 536.37374616 729.08011693 536.37374616 C729.08011693 537.03374616 729.08011693 537.69374616 729.08011693 538.37374616 C728.42011693 538.37374616 727.76011693 538.37374616 727.08011693 538.37374616 C727.08011693 540.35374616 727.08011693 542.33374616 727.08011693 544.37374616 C726.42011693 544.37374616 725.76011693 544.37374616 725.08011693 544.37374616 C725.08011693 545.69374616 725.08011693 547.01374616 725.08011693 548.37374616 C724.42011693 548.37374616 723.76011693 548.37374616 723.08011693 548.37374616 C723.08011693 549.69374616 723.08011693 551.01374616 723.08011693 552.37374616 C722.42011693 552.37374616 721.76011693 552.37374616 721.08011693 552.37374616 C721.08011693 554.35374616 721.08011693 556.33374616 721.08011693 558.37374616 C720.42011693 558.37374616 719.76011693 558.37374616 719.08011693 558.37374616 C719.08011693 559.69374616 719.08011693 561.01374616 719.08011693 562.37374616 C718.42011693 562.37374616 717.76011693 562.37374616 717.08011693 562.37374616 C717.08011693 563.69374616 717.08011693 565.01374616 717.08011693 566.37374616 C716.42011693 566.37374616 715.76011693 566.37374616 715.08011693 566.37374616 C715.08011693 567.69374616 715.08011693 569.01374616 715.08011693 570.37374616 C714.42011693 570.37374616 713.76011693 570.37374616 713.08011693 570.37374616 C713.08011693 571.03374616 713.08011693 571.69374616 713.08011693 572.37374616 C712.42011693 572.37374616 711.76011693 572.37374616 711.08011693 572.37374616 C711.08011693 574.35374616 711.08011693 576.33374616 711.08011693 578.37374616 C710.42011693 578.37374616 709.76011693 578.37374616 709.08011693 578.37374616 C709.08011693 579.03374616 709.08011693 579.69374616 709.08011693 580.37374616 C708.42011693 580.37374616 707.76011693 580.37374616 707.08011693 580.37374616 C707.08011693 581.69374616 707.08011693 583.01374616 707.08011693 584.37374616 C706.42011693 584.37374616 705.76011693 584.37374616 705.08011693 584.37374616 C705.08011693 585.03374616 705.08011693 585.69374616 705.08011693 586.37374616 C704.42011693 586.37374616 703.76011693 586.37374616 703.08011693 586.37374616 C703.08011693 587.69374616 703.08011693 589.01374616 703.08011693 590.37374616 C702.42011693 590.37374616 701.76011693 590.37374616 701.08011693 590.37374616 C701.08011693 591.69374616 701.08011693 593.01374616 701.08011693 594.37374616 C700.42011693 594.37374616 699.76011693 594.37374616 699.08011693 594.37374616 C699.08011693 595.03374616 699.08011693 595.69374616 699.08011693 596.37374616 C698.42011693 596.37374616 697.76011693 596.37374616 697.08011693 596.37374616 C697.08011693 597.69374616 697.08011693 599.01374616 697.08011693 600.37374616 C696.42011693 600.37374616 695.76011693 600.37374616 695.08011693 600.37374616 C695.08011693 601.03374616 695.08011693 601.69374616 695.08011693 602.37374616 C694.42011693 602.37374616 693.76011693 602.37374616 693.08011693 602.37374616 C693.08011693 603.69374616 693.08011693 605.01374616 693.08011693 606.37374616 C692.42011693 606.37374616 691.76011693 606.37374616 691.08011693 606.37374616 C691.08011693 607.03374616 691.08011693 607.69374616 691.08011693 608.37374616 C690.42011693 608.37374616 689.76011693 608.37374616 689.08011693 608.37374616 C689.08011693 609.69374616 689.08011693 611.01374616 689.08011693 612.37374616 C688.42011693 612.37374616 687.76011693 612.37374616 687.08011693 612.37374616 C687.08011693 613.03374616 687.08011693 613.69374616 687.08011693 614.37374616 C686.42011693 614.37374616 685.76011693 614.37374616 685.08011693 614.37374616 C685.08011693 615.03374616 685.08011693 615.69374616 685.08011693 616.37374616 C684.42011693 616.37374616 683.76011693 616.37374616 683.08011693 616.37374616 C683.08011693 617.03374616 683.08011693 617.69374616 683.08011693 618.37374616 C682.42011693 618.37374616 681.76011693 618.37374616 681.08011693 618.37374616 C681.08011693 619.69374616 681.08011693 621.01374616 681.08011693 622.37374616 C680.42011693 622.37374616 679.76011693 622.37374616 679.08011693 622.37374616 C679.08011693 623.03374616 679.08011693 623.69374616 679.08011693 624.37374616 C678.42011693 624.37374616 677.76011693 624.37374616 677.08011693 624.37374616 C677.08011693 625.03374616 677.08011693 625.69374616 677.08011693 626.37374616 C676.42011693 626.37374616 675.76011693 626.37374616 675.08011693 626.37374616 C675.08011693 627.03374616 675.08011693 627.69374616 675.08011693 628.37374616 C674.42011693 628.37374616 673.76011693 628.37374616 673.08011693 628.37374616 C673.08011693 629.69374616 673.08011693 631.01374616 673.08011693 632.37374616 C672.42011693 632.37374616 671.76011693 632.37374616 671.08011693 632.37374616 C671.08011693 633.03374616 671.08011693 633.69374616 671.08011693 634.37374616 C670.42011693 634.37374616 669.76011693 634.37374616 669.08011693 634.37374616 C669.08011693 635.03374616 669.08011693 635.69374616 669.08011693 636.37374616 C668.42011693 636.37374616 667.76011693 636.37374616 667.08011693 636.37374616 C667.08011693 637.03374616 667.08011693 637.69374616 667.08011693 638.37374616 C666.42011693 638.37374616 665.76011693 638.37374616 665.08011693 638.37374616 C665.08011693 639.03374616 665.08011693 639.69374616 665.08011693 640.37374616 C664.42011693 640.37374616 663.76011693 640.37374616 663.08011693 640.37374616 C663.08011693 641.03374616 663.08011693 641.69374616 663.08011693 642.37374616 C662.42011693 642.37374616 661.76011693 642.37374616 661.08011693 642.37374616 C661.08011693 643.03374616 661.08011693 643.69374616 661.08011693 644.37374616 C660.42011693 644.37374616 659.76011693 644.37374616 659.08011693 644.37374616 C659.08011693 645.03374616 659.08011693 645.69374616 659.08011693 646.37374616 C658.42011693 646.37374616 657.76011693 646.37374616 657.08011693 646.37374616 C657.08011693 647.03374616 657.08011693 647.69374616 657.08011693 648.37374616 C656.42011693 648.37374616 655.76011693 648.37374616 655.08011693 648.37374616 C655.08011693 649.03374616 655.08011693 649.69374616 655.08011693 650.37374616 C654.42011693 650.37374616 653.76011693 650.37374616 653.08011693 650.37374616 C653.08011693 651.03374616 653.08011693 651.69374616 653.08011693 652.37374616 C652.42011693 652.37374616 651.76011693 652.37374616 651.08011693 652.37374616 C651.08011693 653.03374616 651.08011693 653.69374616 651.08011693 654.37374616 C650.42011693 654.37374616 649.76011693 654.37374616 649.08011693 654.37374616 C649.08011693 655.03374616 649.08011693 655.69374616 649.08011693 656.37374616 C648.42011693 656.37374616 647.76011693 656.37374616 647.08011693 656.37374616 C647.08011693 657.03374616 647.08011693 657.69374616 647.08011693 658.37374616 C646.42011693 658.37374616 645.76011693 658.37374616 645.08011693 658.37374616 C645.08011693 659.03374616 645.08011693 659.69374616 645.08011693 660.37374616 C644.42011693 660.37374616 643.76011693 660.37374616 643.08011693 660.37374616 C643.08011693 661.03374616 643.08011693 661.69374616 643.08011693 662.37374616 C642.42011693 662.37374616 641.76011693 662.37374616 641.08011693 662.37374616 C641.08011693 663.03374616 641.08011693 663.69374616 641.08011693 664.37374616 C640.42011693 664.37374616 639.76011693 664.37374616 639.08011693 664.37374616 C639.08011693 665.03374616 639.08011693 665.69374616 639.08011693 666.37374616 C637.76011693 666.37374616 636.44011693 666.37374616 635.08011693 666.37374616 C635.08011693 667.03374616 635.08011693 667.69374616 635.08011693 668.37374616 C634.42011693 668.37374616 633.76011693 668.37374616 633.08011693 668.37374616 C633.08011693 669.03374616 633.08011693 669.69374616 633.08011693 670.37374616 C632.42011693 670.37374616 631.76011693 670.37374616 631.08011693 670.37374616 C631.08011693 671.03374616 631.08011693 671.69374616 631.08011693 672.37374616 C630.42011693 672.37374616 629.76011693 672.37374616 629.08011693 672.37374616 C629.08011693 673.03374616 629.08011693 673.69374616 629.08011693 674.37374616 C627.76011693 674.37374616 626.44011693 674.37374616 625.08011693 674.37374616 C625.08011693 675.03374616 625.08011693 675.69374616 625.08011693 676.37374616 C624.42011693 676.37374616 623.76011693 676.37374616 623.08011693 676.37374616 C623.08011693 677.03374616 623.08011693 677.69374616 623.08011693 678.37374616 C622.42011693 678.37374616 621.76011693 678.37374616 621.08011693 678.37374616 C621.08011693 679.03374616 621.08011693 679.69374616 621.08011693 680.37374616 C619.76011693 680.37374616 618.44011693 680.37374616 617.08011693 680.37374616 C617.08011693 681.03374616 617.08011693 681.69374616 617.08011693 682.37374616 C616.42011693 682.37374616 615.76011693 682.37374616 615.08011693 682.37374616 C615.08011693 683.03374616 615.08011693 683.69374616 615.08011693 684.37374616 C614.42011693 684.37374616 613.76011693 684.37374616 613.08011693 684.37374616 C613.08011693 685.03374616 613.08011693 685.69374616 613.08011693 686.37374616 C611.76011693 686.37374616 610.44011693 686.37374616 609.08011693 686.37374616 C609.08011693 687.03374616 609.08011693 687.69374616 609.08011693 688.37374616 C608.42011693 688.37374616 607.76011693 688.37374616 607.08011693 688.37374616 C607.08011693 689.03374616 607.08011693 689.69374616 607.08011693 690.37374616 C605.76011693 690.37374616 604.44011693 690.37374616 603.08011693 690.37374616 C603.08011693 691.03374616 603.08011693 691.69374616 603.08011693 692.37374616 C601.76011693 692.37374616 600.44011693 692.37374616 599.08011693 692.37374616 C599.08011693 693.03374616 599.08011693 693.69374616 599.08011693 694.37374616 C598.42011693 694.37374616 597.76011693 694.37374616 597.08011693 694.37374616 C597.08011693 695.03374616 597.08011693 695.69374616 597.08011693 696.37374616 C596.42011693 696.37374616 595.76011693 696.37374616 595.08011693 696.37374616 C595.08011693 697.03374616 595.08011693 697.69374616 595.08011693 698.37374616 C593.76011693 698.37374616 592.44011693 698.37374616 591.08011693 698.37374616 C591.08011693 699.03374616 591.08011693 699.69374616 591.08011693 700.37374616 C589.76011693 700.37374616 588.44011693 700.37374616 587.08011693 700.37374616 C587.08011693 701.03374616 587.08011693 701.69374616 587.08011693 702.37374616 C585.76011693 702.37374616 584.44011693 702.37374616 583.08011693 702.37374616 C583.08011693 703.03374616 583.08011693 703.69374616 583.08011693 704.37374616 C582.42011693 704.37374616 581.76011693 704.37374616 581.08011693 704.37374616 C581.08011693 705.03374616 581.08011693 705.69374616 581.08011693 706.37374616 C579.10011693 706.37374616 577.12011693 706.37374616 575.08011693 706.37374616 C575.08011693 707.03374616 575.08011693 707.69374616 575.08011693 708.37374616 C573.76011693 708.37374616 572.44011693 708.37374616 571.08011693 708.37374616 C571.08011693 709.03374616 571.08011693 709.69374616 571.08011693 710.37374616 C569.76011693 710.37374616 568.44011693 710.37374616 567.08011693 710.37374616 C567.08011693 711.03374616 567.08011693 711.69374616 567.08011693 712.37374616 C565.76011693 712.37374616 564.44011693 712.37374616 563.08011693 712.37374616 C563.08011693 713.03374616 563.08011693 713.69374616 563.08011693 714.37374616 C561.76011693 714.37374616 560.44011693 714.37374616 559.08011693 714.37374616 C559.08011693 715.03374616 559.08011693 715.69374616 559.08011693 716.37374616 C557.76011693 716.37374616 556.44011693 716.37374616 555.08011693 716.37374616 C555.08011693 717.03374616 555.08011693 717.69374616 555.08011693 718.37374616 C553.10011693 718.37374616 551.12011693 718.37374616 549.08011693 718.37374616 C549.08011693 719.03374616 549.08011693 719.69374616 549.08011693 720.37374616 C547.76011693 720.37374616 546.44011693 720.37374616 545.08011693 720.37374616 C545.08011693 721.03374616 545.08011693 721.69374616 545.08011693 722.37374616 C543.10011693 722.37374616 541.12011693 722.37374616 539.08011693 722.37374616 C539.08011693 723.03374616 539.08011693 723.69374616 539.08011693 724.37374616 C538.42011693 724.37374616 537.76011693 724.37374616 537.08011693 724.37374616 C537.08011693 725.03374616 537.08011693 725.69374616 537.08011693 726.37374616 C535.10011693 726.37374616 533.12011693 726.37374616 531.08011693 726.37374616 C531.08011693 727.03374616 531.08011693 727.69374616 531.08011693 728.37374616 C529.10011693 728.37374616 527.12011693 728.37374616 525.08011693 728.37374616 C525.08011693 729.03374616 525.08011693 729.69374616 525.08011693 730.37374616 C523.10011693 730.37374616 521.12011693 730.37374616 519.08011693 730.37374616 C519.08011693 731.03374616 519.08011693 731.69374616 519.08011693 732.37374616 C516.44011693 732.37374616 513.80011693 732.37374616 511.08011693 732.37374616 C511.08011693 733.03374616 511.08011693 733.69374616 511.08011693 734.37374616 C507.78011693 734.37374616 504.48011693 734.37374616 501.08011693 734.37374616 C501.08011693 735.03374616 501.08011693 735.69374616 501.08011693 736.37374616 C500.46523412 736.43433209 499.8503513 736.49491803 499.21683568 736.55733991 C498.40859349 736.64112897 497.6003513 736.72491803 496.76761693 736.81124616 C495.96710912 736.89245709 495.1666013 736.97366803 494.34183568 737.05733991 C491.91924513 737.32640308 491.91924513 737.32640308 489.08011693 738.37374616 C489.08011693 739.69374616 489.08011693 741.01374616 489.08011693 742.37374616 C484.47219369 742.54192411 479.86408956 742.70242165 475.25565404 742.85592389 C473.68917527 742.90917025 472.12276535 742.96448504 470.55643529 743.02193952 C468.30015721 743.10433773 466.04373314 743.17920245 463.78714818 743.25265241 C463.09111989 743.27968747 462.3950916 743.30672254 461.67797154 743.33457685 C457.98829703 743.44687116 454.66507815 743.27529864 451.08011693 742.37374616 C451.08011693 743.36374616 451.08011693 744.35374616 451.08011693 745.37374616 C400.66100454 745.39085581 350.24189194 745.40677755 299.82277745 745.4160893 C298.7043578 745.41629638 298.7043578 745.41629638 297.56334381 745.41650765 C281.36114966 745.4195002 265.15895549 745.42227044 248.95676127 745.42481149 C241.01179583 745.42605888 233.0668304 745.42735542 225.12186497 745.4286778 C223.93590344 745.42887394 223.93590344 745.42887394 222.72598308 745.42907404 C197.07551449 745.43333926 171.4250481 745.44085345 145.77458084 745.45004338 C119.42659898 745.45946611 93.07861833 745.46562931 66.73063481 745.46766115 C63.01351513 745.46794932 59.29639546 745.46827496 55.57927579 745.4686234 C54.48184701 745.46872453 54.48184701 745.46872453 53.36224796 745.46882771 C41.5610016 745.47001177 29.75975898 745.47465613 17.95851415 745.48057819 C6.10894146 745.48645125 -5.74062716 745.48863645 -17.59020125 745.48724753 C-24.01650005 745.4866038 -30.4427878 745.48762562 -36.86908466 745.49295163 C-42.74176834 745.49778358 -48.61443345 745.49808616 -54.48711795 745.49464505 C-56.62171151 745.49421916 -58.75630618 745.4955166 -60.8908975 745.49862934 C-63.77237043 745.50258988 -66.65377454 745.5005117 -69.53524619 745.49679399 C-70.38131792 745.499421 -71.22738964 745.50204801 -72.0990999 745.50475463 C-77.80573727 745.48789195 -77.80573727 745.48789195 -78.91988307 744.37374616 C-79.14855289 742.3786353 -79.31761214 740.3766597 -79.46285182 738.37374616 C-82.48453384 700.37929525 -92.32679242 664.95163338 -115.91988307 634.37374616 C-116.62113307 633.46108991 -117.32238307 632.54843366 -118.04488307 631.60812116 C-119.96533269 629.16254859 -121.93012087 626.76309175 -123.91988307 624.37374616 C-124.80160182 623.27159772 -124.80160182 623.27159772 -125.70113307 622.14718366 C-131.56208816 615.11900446 -138.57083157 609.74656602 -145.91988307 604.37374616 C-146.51188503 603.9388487 -147.10388698 603.50395123 -147.71382838 603.05587506 C-160.98452074 593.43662939 -175.64124763 586.55895473 -191.10909206 581.22433209 C-195.81999095 579.57353041 -195.81999095 579.57353041 -196.91988307 577.37374616 C-197.01792635 575.24523266 -197.0490873 573.11355558 -197.05131084 570.98278642 C-197.05336347 570.31615829 -197.0554161 569.64953016 -197.05753094 568.96270117 C-197.06322947 566.70700288 -197.0617402 564.4513651 -197.06032497 562.19566083 C-197.06290696 560.57090073 -197.06591965 558.94614127 -197.06932837 557.3213827 C-197.07742093 552.83946998 -197.07918919 548.35757326 -197.07992584 543.8756541 C-197.08177245 539.04872486 -197.08931772 534.221804 -197.09606105 529.39487958 C-197.10966025 518.83315108 -197.11567138 508.27142637 -197.12007171 497.70969057 C-197.12283109 491.12015841 -197.12706784 484.53062771 -197.13157588 477.94109654 C-197.14376993 459.71115103 -197.15406943 441.48120669 -197.15745097 423.25125718 C-197.15767054 422.08384328 -197.15789011 420.91642937 -197.15811633 419.71363929 C-197.1583346 418.54337236 -197.15855288 417.37310543 -197.15877777 416.16737586 C-197.15922125 413.79581765 -197.15966781 411.42425944 -197.16011745 409.05270123 C-197.16033888 407.87631695 -197.16056031 406.69993266 -197.16078845 405.48790037 C-197.16473892 386.41378354 -197.18219995 367.33970486 -197.20547697 348.26560277 C-197.22915996 328.70161875 -197.24165141 309.1376539 -197.24281889 289.57365531 C-197.2437373 278.58141555 -197.24953131 267.58922551 -197.2676385 256.59699941 C-197.28299827 247.23942336 -197.28818441 237.8819124 -197.2799004 228.52432615 C-197.27597939 223.74628785 -197.27699381 218.96838076 -197.29095775 214.1903584 C-197.30361008 209.82135554 -197.30257626 205.45258364 -197.29036704 201.0835815 C-197.2883949 199.49813188 -197.29155763 197.91266639 -197.3002114 196.32723916 C-197.31118797 194.18138961 -197.30390032 192.03637205 -197.29181987 189.89054704 C-197.29241696 188.69589186 -197.29301405 187.50123669 -197.29362923 186.27037984 C-196.91988307 183.37374616 -196.91988307 183.37374616 -195.53181463 181.50848407 C-193.4450532 180.03948416 -191.73461479 179.6973114 -189.22066432 179.26827741 C-187.79717677 179.0073631 -187.79717677 179.0073631 -186.3449319 178.7411778 C-185.31779079 178.55805036 -184.29064967 178.37492291 -183.23238307 178.18624616 C-148.3922258 171.33960716 -115.46895524 155.76919739 -87.91988307 133.37374616 C-87.40393581 132.96076276 -86.88798854 132.54777936 -86.35640651 132.12228131 C-72.22957162 120.77773843 -59.48705591 108.10647688 -48.91988307 93.37374616 C-48.09638471 92.27717233 -47.27082346 91.18214497 -46.44332057 90.08858991 C-39.66450763 81.02260049 -34.1274119 71.41308932 -28.91988307 61.37374616 C-28.529136 60.62496198 -28.13838893 59.8761778 -27.73580104 59.10470319 C-19.09704781 42.33834411 -13.05944902 24.46406744 -8.80660182 6.10421491 C-7.19795923 1.15072956 -5.10409292 -0.00140921 0 0 Z " fill="#0045E0" transform="translate(805.9198830723763,811.6262538433075)"/>
<path d="M0 0 C104.94 0 209.88 0 318 0 C314.17606617 49.71113974 299.97743508 91.35827947 261.71484375 124.78515625 C245.13583497 138.31076485 226.16421115 149.36385579 205.54150391 155.31518555 C201.11445148 156.59307986 197.31060307 158.15259869 193 160 C192.67 286.39 192.34 412.78 192 543 C198.6 544.32 205.2 545.64 212 547 C215.98436965 547.9784463 219.88693029 548.9676522 223.8125 550.125 C225.29000732 550.5578833 225.29000732 550.5578833 226.79736328 550.99951172 C244.08488402 556.27502043 261.38790924 563.95384865 276.6875 573.625 C277.36466064 574.05176025 278.04182129 574.47852051 278.73950195 574.91821289 C302.09548984 589.83038383 323.878709 608.32605123 340 631 C340.90468018 632.2679541 340.90468018 632.2679541 341.82763672 633.56152344 C360.62155039 660.17967182 373.52300746 688.30724674 381 720 C381.16661133 720.65274902 381.33322266 721.30549805 381.50488281 721.97802734 C383.37532092 729.65771935 383.99785361 736.98282887 385 745 C633.16 745 881.32 745 1137 745 C1137 767.44 1137 789.88 1137 813 C887.52 813 638.04 813 381 813 C379.68 818.61 378.36 824.22 377 830 C368.96611577 858.19163013 356.17706189 885.18445819 337.5234375 907.921875 C336.03512502 909.73733976 334.57067578 911.57365023 333.1640625 913.453125 C323.09622642 926.84653589 310.31190614 938.86535733 296.77050781 948.70361328 C294.92582522 950.05431165 293.11626136 951.44512971 291.3046875 952.83984375 C270.32189231 968.65804571 245.50810453 979.89176421 220.375 987.3125 C219.6010791 987.54324219 218.8271582 987.77398438 218.02978516 988.01171875 C209.40076352 990.41800733 200.97776179 991.50370637 192 993 C192 1124.34 192 1255.68 192 1391 C196.95 1392.485 196.95 1392.485 202 1394 C221.35890067 1400.42950156 237.9528946 1411.05578589 253.4375 1424.125 C254.27027466 1424.82459839 254.27027466 1424.82459839 255.11987305 1425.53833008 C293.53469726 1458.77427543 305.4875325 1508.86701337 310 1557 C209.68 1557 109.36 1557 6 1557 C6.33 1556.34 6.66 1555.68 7 1555 C7.17527063 1553.27732961 7.29805977 1551.54918679 7.39453125 1549.8203125 C9.8818725 1509.63620332 21.31720363 1471.03398841 48 1440 C48.72316406 1439.15260254 48.72316406 1439.15260254 49.4609375 1438.28808594 C68.59965864 1416.09615721 93.00859823 1399.98024783 120.921875 1391.0234375 C123.84137729 1390.30792094 123.84137729 1390.30792094 125 1389 C125.09794254 1386.90979412 125.1237119 1384.81620735 125.12304783 1382.72370815 C125.1247786 1381.72414854 125.1247786 1381.72414854 125.12654433 1380.7043958 C125.12921745 1378.44356681 125.12468317 1376.18280728 125.12025452 1373.92198181 C125.12069008 1372.29594724 125.1215647 1370.66991274 125.12284368 1369.04387861 C125.12509163 1364.55390901 125.12106328 1360.06396302 125.11606562 1355.57399642 C125.11176558 1350.74029467 125.11320723 1345.90659436 125.1139679 1341.07289124 C125.11449342 1332.6909497 125.1113437 1324.30901592 125.10573006 1315.92707634 C125.09761884 1303.80805048 125.09500023 1291.6890284 125.09374207 1279.57000012 C125.09155095 1259.90986449 125.08488925 1240.24973299 125.07543945 1220.58959961 C125.06626687 1201.48640972 125.05918529 1182.38322095 125.05493164 1163.2800293 C125.05466892 1162.10341576 125.05440619 1160.92680223 125.05413551 1159.71453374 C125.05283051 1153.81208031 125.0515668 1147.90962687 125.05032361 1142.00717342 C125.03994914 1093.00477942 125.02232921 1044.00238991 125 995 C123.58581821 994.51669 122.1705663 994.03651065 120.75488281 993.55761719 C119.96688293 993.28987488 119.17888306 993.02213257 118.36700439 992.74627686 C114.87603654 991.64563314 111.33629457 990.95993323 107.75 990.25 C69.27488386 982.06320176 34.81338562 962.38025528 6 936 C5.01644531 935.12085938 4.03289062 934.24171875 3.01953125 933.3359375 C-33.26525624 900.80534528 -56.00206138 855.5580989 -64.46508789 807.95214844 C-64.80149163 806.09555601 -65.16416075 804.2433404 -65.56420898 802.39941406 C-67.74308068 791.57680013 -67.5315227 780.49551152 -67.5625 769.5 C-67.56579315 768.39584747 -67.5690863 767.29169495 -67.57247925 766.15408325 C-67.55132622 736.49458767 -62.47778892 709.44710522 -51 682 C-50.65291992 681.1529248 -50.30583984 680.30584961 -49.94824219 679.43310547 C-34.65722958 642.37842247 -8.46278341 608.82319444 24.07910156 585.38720703 C25.77386765 584.16330504 27.44730617 582.9099862 29.1171875 581.65234375 C55.8482261 562.11812324 87.46546134 550.32954587 119.67578125 543.7265625 C122.85683949 543.17404547 122.85683949 543.17404547 125 542 C125.02286695 493.49689649 125.04049852 444.99379352 125.05106533 396.49068568 C125.0523161 390.77015763 125.05361042 385.04962959 125.05493164 379.32910156 C125.05519395 378.19020196 125.05545626 377.05130235 125.05572652 375.87789063 C125.06008304 357.41407382 125.06797049 338.95026011 125.0771528 320.48644514 C125.08648984 301.55420793 125.09205572 282.62197234 125.09408849 263.68973291 C125.09546362 251.99864144 125.09981363 240.30755874 125.10791647 228.61646996 C125.11318455 220.60974976 125.11480415 212.60303411 125.11350138 204.5963123 C125.1128581 199.97034982 125.11387441 195.3444027 125.11920547 190.71844292 C125.12404368 186.48949693 125.12433584 182.26057674 125.12089889 178.03162961 C125.12047362 176.49593744 125.12176581 174.96024372 125.12488318 173.42455466 C125.12885495 171.34844217 125.12675847 169.27242467 125.12304783 167.19631386 C125.12361741 165.46137167 125.12361741 165.46137167 125.1241985 163.69138014 C125.18363751 161.02935241 125.18363751 161.02935241 124 159 C121.58757425 158.23769796 119.19618406 157.5726879 116.75 156.9375 C90.23249713 149.5497089 67.89855124 135.79678582 48 117 C47.25234375 116.30519531 46.5046875 115.61039062 45.734375 114.89453125 C14.012984 84.44865073 2.36480679 42.56652222 0 0 Z " fill="#FEFEFE" transform="translate(418,0)"/>
<path d="M0 0 C1.98 0 3.96 0 6 0 C6 0.66 6 1.32 6 2 C7.98 2 9.96 2 12 2 C12 2.66 12 3.32 12 4 C13.32 4 14.64 4 16 4 C16 4.66 16 5.32 16 6 C17.98 6 19.96 6 22 6 C22 6.66 22 7.32 22 8 C23.32 8 24.64 8 26 8 C26 8.66 26 9.32 26 10 C27.32 10 28.64 10 30 10 C30 10.66 30 11.32 30 12 C31.32 12 32.64 12 34 12 C34 12.66 34 13.32 34 14 C35.32 14 36.64 14 38 14 C38 14.66 38 15.32 38 16 C39.32 16 40.64 16 42 16 C42 16.66 42 17.32 42 18 C43.32 18 44.64 18 46 18 C46 18.66 46 19.32 46 20 C46.66 20 47.32 20 48 20 C48 20.66 48 21.32 48 22 C49.32 22 50.64 22 52 22 C52 22.66 52 23.32 52 24 C53.32 24 54.64 24 56 24 C56 24.66 56 25.32 56 26 C56.66 26 57.32 26 58 26 C58 26.66 58 27.32 58 28 C59.32 28 60.64 28 62 28 C62 28.66 62 29.32 62 30 C63.32 30 64.64 30 66 30 C66 30.66 66 31.32 66 32 C66.66 32 67.32 32 68 32 C68 32.66 68 33.32 68 34 C69.32 34 70.64 34 72 34 C72 34.66 72 35.32 72 36 C72.66 36 73.32 36 74 36 C74 36.66 74 37.32 74 38 C74.66 38 75.32 38 76 38 C76 38.66 76 39.32 76 40 C77.32 40 78.64 40 80 40 C80 40.66 80 41.32 80 42 C80.66 42 81.32 42 82 42 C82 42.66 82 43.32 82 44 C83.32 44 84.64 44 86 44 C86 44.66 86 45.32 86 46 C86.66 46 87.32 46 88 46 C88 46.66 88 47.32 88 48 C88.66 48 89.32 48 90 48 C90 48.66 90 49.32 90 50 C90.66 50 91.32 50 92 50 C92 50.66 92 51.32 92 52 C93.32 52 94.64 52 96 52 C96 52.66 96 53.32 96 54 C96.66 54 97.32 54 98 54 C98 54.66 98 55.32 98 56 C98.66 56 99.32 56 100 56 C100 56.66 100 57.32 100 58 C100.66 58 101.32 58 102 58 C102 58.66 102 59.32 102 60 C102.66 60 103.32 60 104 60 C104 60.66 104 61.32 104 62 C104.66 62 105.32 62 106 62 C106 62.66 106 63.32 106 64 C106.66 64 107.32 64 108 64 C108 64.66 108 65.32 108 66 C108.66 66 109.32 66 110 66 C110 66.66 110 67.32 110 68 C110.66 68 111.32 68 112 68 C112 68.66 112 69.32 112 70 C112.66 70 113.32 70 114 70 C114 70.66 114 71.32 114 72 C114.66 72 115.32 72 116 72 C116 72.66 116 73.32 116 74 C116.66 74 117.32 74 118 74 C118 74.66 118 75.32 118 76 C118.66 76 119.32 76 120 76 C120 76.66 120 77.32 120 78 C120.66 78 121.32 78 122 78 C122 78.66 122 79.32 122 80 C122.66 80 123.32 80 124 80 C124 80.66 124 81.32 124 82 C124.66 82 125.32 82 126 82 C126 82.66 126 83.32 126 84 C126.66 84 127.32 84 128 84 C128 84.66 128 85.32 128 86 C128.66 86 129.32 86 130 86 C130 86.66 130 87.32 130 88 C130.66 88 131.32 88 132 88 C132 88.66 132 89.32 132 90 C132.66 90 133.32 90 134 90 C134 90.66 134 91.32 134 92 C134.66 92 135.32 92 136 92 C136 92.66 136 93.32 136 94 C136.66 94 137.32 94 138 94 C138 94.66 138 95.32 138 96 C138.66 96 139.32 96 140 96 C140 96.66 140 97.32 140 98 C140.66 98 141.32 98 142 98 C142 99.32 142 100.64 142 102 C142.66 102 143.32 102 144 102 C144 102.66 144 103.32 144 104 C144.66 104 145.32 104 146 104 C146 104.66 146 105.32 146 106 C146.66 106 147.32 106 148 106 C148 107.32 148 108.64 148 110 C148.66 110 149.32 110 150 110 C150 110.66 150 111.32 150 112 C150.66 112 151.32 112 152 112 C152 112.66 152 113.32 152 114 C152.66 114 153.32 114 154 114 C154 115.32 154 116.64 154 118 C154.66 118 155.32 118 156 118 C156 118.66 156 119.32 156 120 C156.66 120 157.32 120 158 120 C158 121.32 158 122.64 158 124 C158.66 124 159.32 124 160 124 C160 124.66 160 125.32 160 126 C160.66 126 161.32 126 162 126 C162 127.32 162 128.64 162 130 C162.66 130 163.32 130 164 130 C164 130.66 164 131.32 164 132 C164.66 132 165.32 132 166 132 C166 133.32 166 134.64 166 136 C166.66 136 167.32 136 168 136 C168 137.32 168 138.64 168 140 C168.66 140 169.32 140 170 140 C170 140.66 170 141.32 170 142 C170.66 142 171.32 142 172 142 C172 143.32 172 144.64 172 146 C172.66 146 173.32 146 174 146 C174 147.32 174 148.64 174 150 C174.66 150 175.32 150 176 150 C176 151.32 176 152.64 176 154 C176.66 154 177.32 154 178 154 C178 155.32 178 156.64 178 158 C178.66 158 179.32 158 180 158 C180 159.32 180 160.64 180 162 C180.66 162 181.32 162 182 162 C182 163.32 182 164.64 182 166 C182.66 166 183.32 166 184 166 C184 167.32 184 168.64 184 170 C184.66 170 185.32 170 186 170 C186 171.32 186 172.64 186 174 C186.66 174 187.32 174 188 174 C188 175.32 188 176.64 188 178 C188.66 178 189.32 178 190 178 C190 179.98 190 181.96 190 184 C190.66 184 191.32 184 192 184 C192 185.98 192 187.96 192 190 C189.67978656 187.67978656 188.90738581 185.73008392 187.63671875 182.70703125 C173.05229584 148.6097256 153.91516869 116.62477508 128.37890625 89.52734375 C126.35373028 87.37580212 124.41438725 85.18679187 122.5 82.9375 C115.61992905 75.01799387 108.00058725 67.77192563 100 61 C99.0925 60.20335937 98.185 59.40671875 97.25 58.5859375 C69.86762234 34.70319983 38.05424253 17.04147811 4.74804688 2.83105469 C3 2 3 2 0 0 Z " fill="#F8F9FD" transform="translate(1343,23)"/>
<path d="M0 0 C0.495 1.98 0.495 1.98 1 4 C0.34 4 -0.32 4 -1 4 C-1 5.32 -1 6.64 -1 8 C-1.66 8 -2.32 8 -3 8 C-3 8.66 -3 9.32 -3 10 C-3.66 10 -4.32 10 -5 10 C-5 11.32 -5 12.64 -5 14 C-5.66 14 -6.32 14 -7 14 C-7 14.66 -7 15.32 -7 16 C-7.66 16 -8.32 16 -9 16 C-9 17.32 -9 18.64 -9 20 C-9.66 20 -10.32 20 -11 20 C-11 20.66 -11 21.32 -11 22 C-11.66 22 -12.32 22 -13 22 C-13 23.32 -13 24.64 -13 26 C-13.66 26 -14.32 26 -15 26 C-15 26.66 -15 27.32 -15 28 C-15.66 28 -16.32 28 -17 28 C-17 28.66 -17 29.32 -17 30 C-17.66 30 -18.32 30 -19 30 C-19 30.66 -19 31.32 -19 32 C-19.66 32 -20.32 32 -21 32 C-21 33.32 -21 34.64 -21 36 C-21.66 36 -22.32 36 -23 36 C-23 36.66 -23 37.32 -23 38 C-23.66 38 -24.32 38 -25 38 C-25 38.66 -25 39.32 -25 40 C-25.66 40 -26.32 40 -27 40 C-27 40.66 -27 41.32 -27 42 C-27.66 42 -28.32 42 -29 42 C-29 43.32 -29 44.64 -29 46 C-29.66 46 -30.32 46 -31 46 C-31 46.66 -31 47.32 -31 48 C-31.66 48 -32.32 48 -33 48 C-33 48.66 -33 49.32 -33 50 C-33.66 50 -34.32 50 -35 50 C-35 50.66 -35 51.32 -35 52 C-35.66 52 -36.32 52 -37 52 C-37 52.66 -37 53.32 -37 54 C-37.66 54 -38.32 54 -39 54 C-39 54.66 -39 55.32 -39 56 C-39.66 56 -40.32 56 -41 56 C-41 56.66 -41 57.32 -41 58 C-41.66 58 -42.32 58 -43 58 C-43 58.66 -43 59.32 -43 60 C-43.66 60 -44.32 60 -45 60 C-45 60.66 -45 61.32 -45 62 C-45.66 62 -46.32 62 -47 62 C-47 62.66 -47 63.32 -47 64 C-47.66 64 -48.32 64 -49 64 C-49 64.66 -49 65.32 -49 66 C-49.66 66 -50.32 66 -51 66 C-51 66.66 -51 67.32 -51 68 C-51.66 68 -52.32 68 -53 68 C-53 68.66 -53 69.32 -53 70 C-53.66 70 -54.32 70 -55 70 C-55 70.66 -55 71.32 -55 72 C-55.66 72 -56.32 72 -57 72 C-57 72.66 -57 73.32 -57 74 C-57.66 74 -58.32 74 -59 74 C-59 74.66 -59 75.32 -59 76 C-59.66 76 -60.32 76 -61 76 C-61 76.66 -61 77.32 -61 78 C-61.66 78 -62.32 78 -63 78 C-63 78.66 -63 79.32 -63 80 C-64.32 80 -65.64 80 -67 80 C-67 80.66 -67 81.32 -67 82 C-67.66 82 -68.32 82 -69 82 C-69 82.66 -69 83.32 -69 84 C-69.66 84 -70.32 84 -71 84 C-71 84.66 -71 85.32 -71 86 C-71.66 86 -72.32 86 -73 86 C-73 86.66 -73 87.32 -73 88 C-74.32 87.67 -75.64 87.34 -77 87 C-76.1028125 86.23558594 -75.205625 85.47117187 -74.28125 84.68359375 C-60.43211123 72.8217501 -47.1123175 60.64576795 -35 47 C-34.2575 46.20722656 -33.515 45.41445312 -32.75 44.59765625 C-21.42497577 32.44347846 -12.20129767 18.61109122 -3.13818359 4.73901367 C-2.10062563 3.1537444 -1.05094905 1.57642358 0 0 Z " fill="#FFFFFF" transform="translate(1508,1398)"/>
<path d="M0 0 C9.9 0 19.8 0 30 0 C30.33 2.31 30.66 4.62 31 7 C27.06679003 6.45225112 23.13411785 5.9008054 19.2019043 5.34594727 C17.86448156 5.15775822 16.52691686 4.97057523 15.18920898 4.78442383 C13.26509054 4.51649051 11.34152111 4.24462381 9.41796875 3.97265625 C8.26063232 3.81031494 7.1032959 3.64797363 5.91088867 3.48071289 C3 3 3 3 0 2 C0 1.34 0 0.68 0 0 Z " fill="#FCFDFE" transform="translate(1251,0)"/>
<path d="M0 0 C0.66 0 1.32 0 2 0 C2 1.32 2 2.64 2 4 C2.66 4 3.32 4 4 4 C4 6.64 4 9.28 4 12 C4.66 12 5.32 12 6 12 C6 14.64 6 17.28 6 20 C6.66 20 7.32 20 8 20 C8 23.96 8 27.92 8 32 C8.66 32 9.32 32 10 32 C10 37.28 10 42.56 10 48 C9.67 48 9.34 48 9 48 C8.86948242 47.16976318 8.73896484 46.33952637 8.60449219 45.48413086 C5.54636545 25.31133958 5.54636545 25.31133958 0.69921875 5.51953125 C0 3 0 3 0 0 Z " fill="#F9FAFE" transform="translate(1545,245)"/>
<path d="M0 0 C3.3 0 6.6 0 10 0 C10 0.66 10 1.32 10 2 C11.98 2 13.96 2 16 2 C16 2.66 16 3.32 16 4 C18.64 4 21.28 4 24 4 C24 4.66 24 5.32 24 6 C25.32 6 26.64 6 28 6 C28 6.66 28 7.32 28 8 C29.98 8 31.96 8 34 8 C34 8.66 34 9.32 34 10 C35.32 10 36.64 10 38 10 C38 10.66 38 11.32 38 12 C32.00458745 10.91932109 26.25808981 8.99749432 20.45239258 7.18920898 C18.44160518 6.56377687 16.4289198 5.94475253 14.41601562 5.32617188 C13.13008837 4.92747005 11.84427703 4.52839413 10.55859375 4.12890625 C9.39642334 3.76869385 8.23425293 3.40848145 7.03686523 3.03735352 C4 2 4 2 0 0 Z " fill="#F3F6FD" transform="translate(1305,11)"/>
<path d="M0 0 C-0.66 0 -1.32 0 -2 0 C-2 1.32 -2 2.64 -2 4 C-8.93 4 -15.86 4 -23 4 C-23 3.67 -23 3.34 -23 3 C-19.73172393 2.29994196 -16.46007824 1.61713756 -13.1875 0.9375 C-11.7943457 0.63875977 -11.7943457 0.63875977 -10.37304688 0.33398438 C-9.0340332 0.05844727 -9.0340332 0.05844727 -7.66796875 -0.22265625 C-6.84578857 -0.39547119 -6.0236084 -0.56828613 -5.17651367 -0.74633789 C-3 -1 -3 -1 0 0 Z " fill="#FFFFFF" transform="translate(1297,1550)"/>
<path d="M0 0 C0.33 0 0.66 0 1 0 C1 1.98 1 3.96 1 6 C0.34 6 -0.32 6 -1 6 C-1 6.66 -1 7.32 -1 8 C-1.66 8 -2.32 8 -3 8 C-3 9.32 -3 10.64 -3 12 C-3.66 12 -4.32 12 -5 12 C-5 12.66 -5 13.32 -5 14 C-5.66 14 -6.32 14 -7 14 C-5.23570801 9.02790438 -2.6060834 4.56561939 0 0 Z " fill="#FFFFFF" transform="translate(1516,1384)"/>
<path d="M0 0 C0.33 0.66 0.66 1.32 1 2 C0.34 2 -0.32 2 -1 2 C-1 2.66 -1 3.32 -1 4 C-1.66 4 -2.32 4 -3 4 C-3 4.66 -3 5.32 -3 6 C-4.32 6 -5.64 6 -7 6 C-7 6.66 -7 7.32 -7 8 C-8.32 7.67 -9.64 7.34 -11 7 C-7.37 4.69 -3.74 2.38 0 0 Z " fill="#FFFFFF" transform="translate(1404,1504)"/>
<path d="M0 0 C0.33 0 0.66 0 1 0 C1 2.64 1 5.28 1 8 C0.34 8 -0.32 8 -1 8 C-1 8.66 -1 9.32 -1 10 C-1.66 10 -2.32 10 -3 10 C-2.01 6.7 -1.02 3.4 0 0 Z " fill="#FFFFFF" transform="translate(1536,1340)"/>
<path d="M0 0 C0 0.66 0 1.32 0 2 C-0.66 2 -1.32 2 -2 2 C-2 2.66 -2 3.32 -2 4 C-2.66 4 -3.32 4 -4 4 C-4 4.66 -4 5.32 -4 6 C-5.32 5.67 -6.64 5.34 -8 5 C-2.25 0 -2.25 0 0 0 Z " fill="#FFFFFF" transform="translate(1423,1492)"/>
</svg>
